<?xml version="1.0" encoding="UTF-8"?><svg xmlns="http://www.w3.org/2000/svg" xmlns:xlink="http://www.w3.org/1999/xlink" height="615.4" preserveAspectRatio="xMidYMid meet" version="1.0" viewBox="0.0 0.0 1060.4 615.4" width="1060.4" zoomAndPan="magnify"><defs><clipPath id="a"><path d="M 0 0 L 1060.421875 0 L 1060.421875 615.378906 L 0 615.378906 Z M 0 0"/></clipPath></defs><g><g clip-path="url(#a)" id="change1_1"><path d="M 47.269531 80.632812 C 86.164062 120.160156 124.058594 160.53125 164.117188 198.628906 C 185.746094 219.199219 222.003906 216.78125 243.367188 195.6875 C 251.175781 187.976562 257.734375 177.265625 260.746094 166.746094 C 271.199219 130.261719 279.847656 93.257812 289.109375 56.722656 C 267.355469 40.472656 262.808594 24.136719 275.554688 9.621094 C 286.226562 -2.53125 303.894531 -3.273438 315.519531 7.941406 C 328.96875 20.921875 326.648438 37.464844 308.761719 53.164062 C 326.300781 92.074219 343.1875 131.496094 361.714844 170.132812 C 383.320312 215.179688 440.660156 218.871094 469.101562 177.769531 C 471.371094 174.492188 473.488281 171.101562 475.5625 167.691406 C 497.515625 131.578125 519.449219 95.449219 538.667969 63.800781 C 535.242188 49.804688 530.507812 39.617188 530.863281 29.613281 C 531.308594 17.007812 540.414062 8.972656 553.5 7.757812 C 567.445312 6.46875 578.203125 11.953125 582.855469 25.671875 C 587.140625 38.316406 584.453125 50.886719 572.496094 56.867188 C 561.238281 62.5 561.867188 69.535156 563.3125 79.253906 C 568.964844 117.183594 574.378906 155.148438 579.351562 193.171875 C 582.714844 218.894531 593.902344 238.640625 619.042969 248.25 C 645.324219 258.300781 667.683594 251.058594 687.734375 232.457031 C 717.007812 205.304688 746.71875 178.617188 773.667969 154.070312 C 774.183594 140.816406 772.753906 129.566406 775.722656 119.632812 C 777.429688 113.929688 785.605469 108.457031 792.03125 106.203125 C 807.691406 100.710938 823.597656 111.726562 826.171875 128.265625 C 828.960938 146.214844 817.976562 157.730469 794.015625 160.464844 C 787.84375 199.9375 779.601562 239.675781 775.894531 279.828125 C 771.78125 324.402344 815.425781 356.238281 857.394531 340.273438 C 907.277344 321.304688 956.417969 300.390625 1005.621094 280.425781 C 1005.929688 252.464844 1016.609375 238.242188 1035.449219 239.972656 C 1050.5 241.351562 1062.058594 255.335938 1060.230469 269.941406 C 1057.628906 290.773438 1044.058594 297.792969 1016.648438 291.945312 C 940.785156 399.554688 864.742188 507.40625 788.617188 615.378906 C 744.523438 575.121094 692.023438 552.53125 638.066406 535.199219 C 572.558594 514.148438 505.96875 495.425781 438.683594 481.183594 C 351.164062 462.660156 262.214844 453.527344 172.402344 461.769531 C 162.503906 462.675781 152.617188 464.28125 142.894531 466.351562 C 133.226562 468.410156 123.765625 471.46875 112.851562 474.464844 C 106.011719 441.304688 99.195312 408.21875 92.363281 375.132812 C 73.398438 283.347656 54.390625 191.574219 35.542969 99.769531 C 34.203125 93.242188 33.738281 88.195312 24.730469 86.824219 C 4.949219 83.820312 -3.839844 69.253906 1.570312 51.398438 C 6.25 35.941406 21.710938 28.757812 37.5625 34.679688 C 53.382812 40.585938 58.785156 57.0625 50.558594 74.386719 C 49.734375 76.121094 48.769531 77.792969 47.269531 80.632812" fill="#fde164"/></g></g></svg>