<?xml version="1.0" encoding="UTF-8" standalone="no"?><svg xmlns="http://www.w3.org/2000/svg" xmlns:xlink="http://www.w3.org/1999/xlink" fill="#000000" height="536.1" preserveAspectRatio="xMidYMid meet" version="1" viewBox="-25.0 -26.9 534.4 536.1" width="534.4" zoomAndPan="magnify"><g><g><g id="change1_1"><path d="M464.4,150.3c8.4,45.3,16,91.9,7.8,137.3c-5.8,32.3-19.7,62.9-39,89.4c-32,43.8-79.3,76.1-131.7,90 c-52.4,13.9-118.6,6.9-168.1-15.4c-0.7,7.4-9.9,4.2-3.5,8.1c36,22.1,104.9,38.2,147.1,38.7c19.5,0.2,39.3-0.5,57.8-6.6 c9.7-3.2,18.8-7.9,27.9-12.6c11.6-6.1,23.2-12.2,34.1-19.6c34.4-23.3,59.9-57.9,78.7-95c10.5-20.8,19.2-42.7,22.5-65.8 c4.2-29-0.3-58.4-5.1-87.3c-3.9-23.3-9.2-48.7-27.6-63.6" fill="#ffffff"/></g><g id="change2_2"><path d="M499.8,247.1c-0.1-2.3-0.2-3.9-0.2-5.2c0-0.8,0-1.6,0-2.3c0-1.8,0-3.7-0.4-7.3c0-0.1,0-0.2,0-0.3 c-0.6-3.7-1.2-5.6-1.8-7.4c-0.7-1.8-1.2-3.6-2-7.3c-1.3-6-1.6-7.1-2.8-11.3c-0.3-0.9-0.6-2-0.9-3.3c-1-3.8-1-5.8-1.1-7.8 c-0.1-1.9-0.3-3.8-1.3-7.2c-1.2-3.6-2.2-5.3-3.1-6.9c-1-1.7-1.8-3.4-3.3-6.8c-3-6.9-1.3-7.7-4.6-14.5c-3.3-6.9-4.9-6-8.5-12.7 c-1.8-3.3-2.6-5-3.3-6.8c-0.7-1.8-1.4-3.6-3.5-6.8c-2.1-3.2-3.1-4.7-4.2-6.3c-1-1.6-2.1-3.2-4.4-6.2c-2.3-3-3.4-4.5-4.6-6 c-1.2-1.4-2.5-2.9-4.9-5.8c-2.4-3-3.8-4.2-5.2-5.6c-1.4-1.3-2.7-2.6-5.3-5.4c-2.7-2.7-4-4-5.3-5.4c-1.3-1.3-2.6-2.7-5.5-5.3 c-5.6-5.1-5.6-5.1-11.5-9.8c-2.9-2.4-4.6-3.4-6.3-4.3c-1.7-0.9-3.4-1.8-6.4-4.1c-3.1-2.2-4.5-3.4-5.9-4.7c-1.4-1.3-2.8-2.7-6-4.6 c-6.5-3.9-6.1-4.6-12.8-8.1c-6.7-3.6-7.2-2.7-14-5.9c-3.4-1.7-5.2-2.2-7-2.9c-1.8-0.7-3.5-1.3-7-2.8c-3.6-1.3-5.4-1.7-7.3-2.1 c-1.9-0.4-3.7-0.9-7.3-2c-7.2-2.2-7.1-2.5-14.4-4.3c-7.3-1.9-7.2-2.5-14.6-4c-2-0.4-3.5,1.9-4.1,4.9c0,0.1,0,0.1,0,0.2 c0,0,0.2,5.1,2.2,5.5c7.1,1.4,6.9,2.5,13.8,4.3c7,1.7,6.8,2.6,13.6,4.6c3.4,1,5.3,1.1,7.2,1.1c1.9,0,3.8,0,7.2,1.3 c3.4,1.4,5,2.1,6.6,2.9c1.6,0.8,3.3,1.4,6.6,3c6.5,3.1,5.6,5,11.9,8.4c6.3,3.3,6.6,2.8,12.8,6.5c3.1,1.8,4.7,2.6,6.4,3.3 c1.7,0.7,3.5,1.3,6.4,3.4c2.9,2.2,4.3,3.3,5.8,4.3c1.5,1.1,2.9,2.2,5.7,4.5c5.6,4.6,5.2,5.1,10.5,10c2.7,2.4,4,3.7,5.3,4.9 c1.3,1.2,2.6,2.5,5.2,5c2.4,2.7,3.5,4.1,4.6,5.6c1.1,1.4,2.2,2.8,4.5,5.6c2.3,2.8,3.3,4.3,4.4,5.7c1,1.5,1.9,3,4.1,5.9 c2.2,2.9,3.3,4.3,4.3,5.7c1.1,1.4,2.1,2.9,4.2,5.9c1.9,3,2.9,4.6,3.9,6.1c0.9,1.5,2,3,3.7,6.2c3.4,6.3,3.4,6.3,6.5,12.8 c3.2,6.5,2.7,6.7,5.6,13.3c0.6,1.4,1.1,2.5,1.6,3.4c-0.1-0.1-0.2-0.2-0.3-0.3c-1.8-1.4-2.2-1-3.9-2.4c-1.8-1.4-1.7-1.5-3.5-3 c-1.8-1.4-1.5-1.8-3.2-3.2c-0.5-0.4-1.8,0.8-3.1,2.4c0,0-1.8,2.8-1.3,3.2c1.8,1.4,1.3,2.1,3,3.5c1.8,1.4,1.5,1.8,3.2,3.2 c1.8,1.4,2.8,0.1,4.6,1.5c1.8,1.4,1.7,1.5,3.5,3c1.8,1.4,0.9,2.6,2.6,4c1.8,1.4,2.1,1,3.9,2.4c0.4,0.3,0.7,0.5,1.1,0.7 c0.6,2.4,0.9,4.1,2.1,8.5c1.9,7,2,7,3.5,14c0.3,1.5,0.5,2.6,0.6,3.6c-0.5-0.2-1-0.5-1.8-1.1c-1.8-1.4-1.7-1.5-3.5-3 c-1.8-1.4-1.5-1.8-3.2-3.2c-0.5-0.4-1.8,0.8-3.1,2.4c0,0-1.8,2.8-1.3,3.2c1.8,1.4,1.3,2.1,3,3.5c1.8,1.4,1.5,1.8,3.2,3.2 c1.8,1.4,2.8,0.1,4.6,1.5c1.1,0.9,1.5,1.3,2.1,1.8c0.1,0.7,0.2,1.6,0.3,2.5c0.4,3.6,0.8,5.3,1.2,7.1c0.4,1.8,0.8,3.5,1,7.1 c0.4,7.2-0.2,7.2-0.2,14.4c0,0.4,0,0.7,0,1c-0.5-0.2-1-0.5-1.7-1.1c-1.8-1.4-1.9-1.3-3.7-2.7s-2.2-1-3.9-2.4 c-1.8-1.4-1.7-1.5-3.5-3c-1.8-1.4-1.5-1.8-3.2-3.2c-0.5-0.4-1.8,0.8-3.1,2.4c0,0-1.8,2.8-1.3,3.2c1.8,1.4,1.3,2.1,3,3.5 c1.8,1.4,1.5,1.8,3.2,3.2c1.8,1.4,2.8,0.1,4.6,1.5c1.8,1.4,1.7,1.5,3.5,3c1.8,1.4,0.9,2.6,2.6,4c1.7,1.3,2.1,1.1,3.6,2.2 c0,0.8,0,1.6-0.1,2.7c-0.4,7.2-0.5,7.2-1.2,14.3c-0.5,3.6-0.7,5.4-0.8,7.2c-0.2,1.7-0.2,3.3-0.8,6.3c-0.9-0.7-1.3-0.8-2.7-1.9 c-1.8-1.4-2.2-1-3.9-2.4c-1.8-1.4-1.7-1.5-3.5-3c-1.8-1.4-1.5-1.8-3.2-3.2c-0.5-0.4-1.8,0.8-3.1,2.4c0,0-1.8,2.8-1.3,3.2 c1.8,1.4,1.3,2.1,3,3.5c1.8,1.4,1.5,1.8,3.2,3.2c1.8,1.4,2.8,0.1,4.6,1.5s1.7,1.5,3.5,3c1.6,1.3,1,2.3,2.2,3.6 c-0.2,1.3-0.4,2.9-1,5.3c-1.7,7.1-4.1,6.4-6.1,13.2c-1,3.4-1.5,5.2-1.9,6.9c-0.4,1.7-0.9,3.5-2.1,6.8c-0.2-0.2-0.4-0.3-0.6-0.5 c-1.8-1.4-2.2-0.9-4-2.4c-1.8-1.4-1.9-1.3-3.7-2.7c-1.8-1.4-2.2-1-3.9-2.4c-1.8-1.4-1.7-1.5-3.5-3c-1.8-1.4-1.5-1.8-3.2-3.2 c-0.5-0.4-1.8,0.8-3.1,2.4c0,0-1.8,2.8-1.3,3.2c1.8,1.4,1.3,2.1,3,3.5c1.8,1.4,1.5,1.8,3.2,3.2c1.8,1.4,2.8,0.1,4.6,1.5 s1.7,1.5,3.5,3c1.8,1.4,0.9,2.6,2.6,4c1.4,1.1,1.9,1.1,2.9,1.7c-0.5,1.2-1.2,2.7-2.2,4.9c-3.1,6.5-1.9,7.1-5.3,13.4 c-3.4,6.4-2.9,6.7-6.5,12.9c-0.1,0.2-0.2,0.3-0.3,0.5c-1.7-1.4-1.5-1.7-3.3-3.1c-1.8-1.4-2.2-0.9-4-2.4c-1.8-1.4-1.9-1.3-3.7-2.7 c-1.8-1.4-2.2-1-3.9-2.4c-1.8-1.4-1.7-1.5-3.5-3c-1.8-1.4-1.5-1.8-3.2-3.2c-0.5-0.4-1.8,0.8-3.1,2.4c0,0-1.8,2.8-1.3,3.2 c1.8,1.4,1.3,2.1,3,3.5c1.8,1.4,1.5,1.8,3.2,3.2c1.8,1.4,2.8,0.1,4.6,1.5s1.7,1.5,3.5,3c1.8,1.4,0.9,2.6,2.6,4 c1.4,1.1,1.9,1.1,3,1.8c-1.2,0.9-2.4,2.1-3.9,4.3c-2.1,2.9-3,4.4-3.9,6c-0.9,1.6-1.8,3.1-4.1,5.9c-4.5,5.6-3.7,6.3-8.6,11.7 c-1.3,1.5-2.4,2.5-3.3,3.2c-0.3-0.4-0.6-0.8-1.3-1.3c-1.8-1.4-1.5-1.8-3.3-3.2c-1.8-1.4-2.2-0.9-4-2.4c-1.8-1.4-1.9-1.3-3.7-2.7 c-1.8-1.4-2.2-1-3.9-2.4c-1.8-1.4-1.7-1.5-3.5-3c-1.8-1.4-1.5-1.8-3.2-3.2c-0.5-0.4-1.8,0.8-3.1,2.4c0,0-1.8,2.8-1.3,3.2 c1.8,1.4,1.3,2.1,3,3.5c1.8,1.4,1.5,1.8,3.2,3.2c1.8,1.4,2.8,0.1,4.6,1.5c1.8,1.4,1.7,1.5,3.5,3c1.8,1.4,0.9,2.6,2.6,4 c1.8,1.4,2.1,1,3.9,2.4l0.1,0.1c-0.4,0.4-0.8,0.7-1.3,1.2c-2.7,2.4-3.9,3.7-5.2,5c-1.3,1.3-2.5,2.6-5.3,4.9 c-2.8,2.3-4.4,3.2-5.9,4.1c-1.6,0.9-3.2,1.7-6.1,3.8c-2.8,2.2-4,3.7-5.2,5.1c-0.7,0.9-1.4,1.7-2.4,2.7c-0.2-0.1-0.5-0.3-0.8-0.6 c-1.8-1.4-1.3-2-3.1-3.5c-1.8-1.4-1.5-1.8-3.3-3.2c-1.8-1.4-2.2-0.9-4-2.4c-1.8-1.4-1.9-1.3-3.7-2.7c-1.8-1.4-2.2-1-3.9-2.4 c-1.8-1.4-1.7-1.5-3.5-3c-1.8-1.4-1.5-1.8-3.2-3.2c-0.5-0.4-1.8,0.8-3.1,2.4c0,0-1.8,2.8-1.3,3.2c1.8,1.4,1.3,2.1,3,3.5 c1.8,1.4,1.5,1.8,3.2,3.2c1.8,1.4,2.8,0.1,4.6,1.5c1.8,1.4,1.7,1.5,3.5,3c1.8,1.4,0.9,2.6,2.6,4c1.8,1.4,2.1,1,3.9,2.4 c1.5,1.2,2.2,0.8,3.4,1.5c-1.5,0.9-2.5,1.6-3.5,2.2c-1.6,0.9-3,2-6.2,3.7c-6.4,3.5-7.5,1.4-13.9,4.5c-3.4,1.7-4.8,2.9-6.4,4 c-0.3-0.3-0.6-0.7-1.2-1.2c-1.8-1.4-1.5-1.8-3.3-3.2c-1.8-1.4-2.2-0.9-4-2.4c-1.8-1.4-1.9-1.3-3.7-2.7c-1.8-1.4-2.2-1-3.9-2.4 c-1.8-1.4-1.7-1.5-3.5-3c-1.8-1.4-1.5-1.8-3.2-3.2c-0.5-0.4-1.8,0.8-3.1,2.4c0,0-1.8,2.8-1.3,3.2c1.8,1.4,1.3,2.1,3,3.5 c1.8,1.4,1.5,1.8,3.2,3.2c1.8,1.4,2.8,0.1,4.6,1.5c1.8,1.4,1.7,1.5,3.5,3c1.8,1.4,0.9,2.6,2.6,4c1,0.8,1.6,1,2.2,1.3 c-2.1,0.9-3.5,1.5-4.7,2.1c-1.6,0.8-3.2,1.7-6.7,2.8c-6.9,2.1-7.5,0.4-14.4,2.2c-5.8,1.6-6.7,2.2-10.9,3.2 c-0.4-0.6-0.7-1.1-1.7-1.9c-1.8-1.4-1.5-1.8-3.3-3.2c-1.8-1.4-2.2-0.9-4-2.4c-1.8-1.4-1.9-1.3-3.7-2.7c-1.8-1.4-2.2-1-3.9-2.4 c-1.8-1.4-1.7-1.5-3.5-3c-1.8-1.4-1.5-1.8-3.2-3.2c-0.5-0.4-1.8,0.8-3.1,2.4c0,0-1.8,2.8-1.3,3.2c1.8,1.4,1.3,2.1,3,3.5 c1.8,1.4,1.5,1.8,3.2,3.2c1.8,1.4,2.8,0.1,4.6,1.5c1.8,1.4,1.7,1.5,3.5,3c1.8,1.4,0.9,2.6,2.6,4c0.2,0.2,0.4,0.3,0.6,0.4 c-1.7,0.5-3.4,1.1-6.9,1.6c-3.6,0.4-5.4,0.5-7.2,0.6c-1.8,0.1-3.6,0.2-7.2,0.4c-7.2,0.4-7.3-0.8-14.4-0.7c-3.6,0.1-5.4,0-7.2-0.1 c-0.1,0-0.1-0.1-0.2-0.1c-1.8-1.4-1.5-1.8-3.3-3.2c-1.8-1.4-2.2-0.9-4-2.4c-1.8-1.4-1.9-1.3-3.7-2.7c-1.8-1.4-2.2-1-3.9-2.4 c-1.8-1.4-1.7-1.5-3.5-3c-1.8-1.4-1.5-1.8-3.2-3.2c-0.5-0.4-1.8,0.8-3.1,2.4c0,0-1.8,2.8-1.3,3.2c1.8,1.4,1.3,2.1,3,3.5 c1.8,1.4,1.5,1.8,3.2,3.2c1.8,1.4,2.8,0.1,4.6,1.5c1.6,1.2,1.7,1.5,2.9,2.5c-2.8,0-4.4,0.2-9.2-0.2c-3.6-0.5-5.4-0.6-7.2-0.7 s-3.6-0.1-7.2-0.9c-0.1,0-0.3,0-0.4,0c-1.7-0.7-3.4-1.3-7-2c-0.4-0.1-0.9-0.2-1.2-0.3c-0.1,0-0.1-0.1-0.2-0.1 c-1.8-1.4-1.8-1.4-3.6-2.8s-2.2-0.8-4-2.3c-1.8-1.4-1.3-2-3.1-3.5c-1.8-1.4-1.5-1.8-3.3-3.2c-1.8-1.4-2.2-0.9-4-2.4 c-1.8-1.4-1.9-1.3-3.7-2.7c-1.8-1.4-2.2-1-3.9-2.4c-1.8-1.4-1.7-1.5-3.5-3c-1.8-1.4-1.5-1.8-3.2-3.2c-0.5-0.4-1.8,0.8-3.1,2.4 c0,0-1.8,2.8-1.3,3.2c1.8,1.4,1.3,2.1,3,3.5c1.8,1.4,1.5,1.8,3.2,3.2c1.8,1.4,2.8,0.1,4.6,1.5s1.7,1.5,3.5,3 c1.7,1.4,1,2.5,2.5,3.8c-1.8,0.1-3.7,0.1-7-1.1c-3.4-1.2-5.1-1.9-6.8-2.6c-1.7-0.8-3.3-1.5-6.6-2.9c-3.4-1.3-4.8-2.7-6.2-3.9 c-1.4-1.3-2.8-2.5-6-4.1c-3.2-1.6-4.8-2.4-6.5-3c-1.7-0.7-3.4-1.2-6.5-3.2c-6.1-3.7-7-2.3-13-6.4c-6.1-4-5.9-4.2-11.8-8.5 c-2.9-2.1-4.1-3.5-5.5-4.8c-1.3-1.3-2.6-2.5-5.3-4.9c-2.7-2.4-4.1-3.6-5.4-4.8c-1.4-1.2-2.7-2.4-5.3-4.9 c-5.2-5.1-4.6-5.6-9.5-10.9c-2.5-2.6-3.4-4.2-4.5-5.6c-1-1.5-2.1-2.9-4.4-5.7c-2.2-2.9-3.3-4.3-4.4-5.7c-1.1-1.4-2.3-2.8-4.3-5.8 c-2-3-3.1-4.4-4.1-5.9s-2-3-3.8-6.1c-1.9-3.1-2.7-4.7-3.6-6.3c-0.8-1.6-1.7-3.2-3.4-6.4c-1.6-3.2-2.3-4.9-3-6.5 c-0.7-1.7-1.5-3.3-2.9-6.6c-2.8-6.6-4.4-6-6.9-12.8c-2.6-6.8-1.8-7-4.1-13.9c-1.1-3.5-1.5-5.2-2-6.9s-1.1-3.5-1.9-7 c-1.4-7.1-0.2-7.4-1.2-14.5c-1.2-7.1-1.8-7-2.6-14.2c-0.5-3.6-0.3-5.4-0.2-7.2c0.1-1.8,0.2-3.6-0.1-7.2c0-7.2-0.6-7.2-0.4-14.4 c0.3-7.2,0.1-7.2,0.8-14.4c0.6-7.2,0.3-7.2,1.3-14.4c0.5-3.6,0.6-5.4,0.7-7.2c0.1-1.8,0.2-3.6,0.9-7.2c1.7-7.1,3.9-6.5,5.8-13.4 c2.1-6.8,1.2-7.1,3.7-13.9c1.2-3.4,1.8-5.1,2.5-6.8c0.7-1.7,1.4-3.3,2.8-6.6c1.3-3.3,1.9-5.1,2.3-6.8c0.5-1.8,1-3.5,2.5-6.8 c1.7-3.2,2.4-4.9,3-6.6c0.7-1.7,1.3-3.4,3.2-6.5c3.8-6.2,5.9-4.9,9.9-10.8c3.9-6,3.4-6.4,7.7-12.2c2.1-2.9,3.2-4.4,4-6 c0.9-1.6,1.8-3.2,4.2-5.9c2.4-2.7,3.8-3.9,5.2-5c1.4-1.2,2.8-2.3,5.4-4.9c5.1-5.1,4.8-5.4,10.1-10.3c2.6-2.5,4.3-3.3,5.9-4.2 s3.2-1.8,5.9-4.1c2.9-2.2,4-3.7,5.1-5.2c1.1-1.6,2.2-3.1,5.2-5.1c3-2.1,4.5-3.1,6-4.1c1.5-1,3.1-1.9,6.2-3.8 c3.1-1.9,5-2.2,6.9-2.6c1.9-0.3,3.8-0.6,6.9-2.4c3.2-1.6,4.7-2.7,6.1-3.9c1.5-1.1,2.9-2.4,6.2-3.8c6.7-2.8,6.4-3.6,13.2-6.1 c6.8-2.6,7.5-0.4,14.3-2.7c3.4-1.1,5.2-1.6,6.9-2.2c1.7-0.6,3.4-1.3,6.9-2.1c7.1-1.4,6.8-2.7,14-3.8c7.2-1.2,7.2-0.6,14.4-1.4 c3.6-0.5,5.4-0.1,7.2,0c1.8,0.2,3.6,0.4,7.2,0.2c7.2,0,7.2,0,14.4,0.2c7.2,0.3,7.2-0.7,14.4,0c7.2,0.6,7.2,0.2,14.4,1.2 c1.7,0.2,3.8-3.8,4.2-4.6c0-0.1,0.1-0.2,0.1-0.2c0.5-3.1-0.6-5.1-2.7-5.4c-7.5-1-7.5-0.8-15-1.4c-7.5-0.7-7.5-0.7-15.1-1 c-3.8-0.2-5.7-0.1-7.5-0.2c-1.9-0.1-3.8-0.1-7.6-0.1c-3.8,0.2-5.7,0-7.6-0.2s-3.8-0.5-7.6,0c-7.6,0.8-7.6,0.6-15.1,1.8 c-7.5,1.2-7.4,1.9-14.8,3.4c-3.7,0.8-5.6,1.3-7.4,1.7c-1.8,0.4-3.7,0.7-7.4,1.8c-7.2,2.4-7,2.9-14.1,5.6 c-7.1,2.6-6.7,3.6-13.6,6.6c-3.5,1.4-5.4,1.9-7.3,2.2c-1.9,0.4-3.9,0.7-7.3,2.4c-3.3,1.8-4.7,3.2-6.1,4.6c-1.4,1.4-2.8,2.8-6,4.8 c-3.2,2-4.9,2.9-6.5,3.8c-1.6,1-3.2,2-6.4,4.1c-3.1,2.1-5,2.7-6.9,3.4c-1.9,0.7-3.8,1.3-6.8,3.6c-3,2.4-4.2,3.9-5.5,5.3 c-1.3,1.4-2.6,2.8-5.4,5.4c-5.1,6.2-4.9,6.3-10.3,11.7c-2.7,2.7-4,4-5.2,5.5c-1.3,1.4-2.5,2.8-5,5.6c-2.5,2.8-3.7,4.3-5,5.7 c-1.3,1.4-2.7,2.7-4.9,5.8c-4.5,6.1-4.6,6-8.8,12.4c-4.3,6.3-3.2,6.9-7.2,13.4c-2,3.2-3,4.8-4.2,6.3c-1.1,1.5-2.3,3-4.1,6.4 c-1.6,3.4-2.5,5.1-3.4,6.8c-0.9,1.7-1.8,3.4-3.2,6.9c-1.5,3.5-2,5.3-2.6,7.1c-0.5,1.8-1,3.7-2.2,7.3c-1.3,3.6-2,5.3-2.6,7.1 s-1.2,3.6-2.3,7.2c-2,7.3-2.2,7.3-4,14.6c-0.7,3.7-0.7,5.7-0.7,7.6c0,1.9,0,3.8-0.5,7.6c-1,7.5-1.9,7.4-2.5,14.9 c-0.7,7.5,0.2,7.6-0.2,15.1c-0.2,3.8,0,5.7,0.1,7.5c0.1,1.9,0.2,3.8,0.2,7.5c0.2,3.8,0.1,5.7,0,7.6c-0.1,1.9-0.3,3.8,0.2,7.6 c0.8,7.5,0,7.6,1.3,15.1c1.2,7.5,2.7,7.2,4.2,14.6c0.8,3.7,1.5,5.5,2,7.3c0.5,1.8,1.1,3.6,2.1,7.2c2.3,7.2,0.2,7.9,2.9,15 c2.6,7.1,3.8,6.7,6.8,13.6c1.4,3.5,2,5.3,2.4,7.2c0.5,1.9,0.9,3.8,2.6,7.2c1.8,3.3,3.1,4.8,4.4,6.3c1.3,1.5,2.5,2.9,4.5,6.1 c2,3.2,2.7,5,3.4,6.8c0.8,1.7,1.6,3.5,3.7,6.6c2.1,3.2,3.2,4.7,4.3,6.2c1.1,1.5,2.2,3.1,4.5,6.1c2.4,3,3.7,4.4,4.9,5.8 c1.3,1.4,2.4,2.9,5,5.7c5.1,5.6,5.4,5.3,10.8,10.6c2.7,2.7,4,4,5.4,5.3s2.8,2.6,5.6,5.1c2.9,2.5,4.4,3.6,5.9,4.8 c1.5,1.1,2.9,2.4,6,4.7c6.1,4.5,6.7,3.7,13,7.9c6.2,4.2,5.7,5.1,12.2,9.1c3.2,2,4.9,2.9,6.5,4c1.6,1,3.2,2.1,6.6,3.8 c3.4,1.6,5.3,2.2,7.1,2.8c1.8,0.6,3.6,1.2,7.1,2.6c3.5,1.5,5.3,2.1,7,2.8c1.8,0.6,3.6,1.2,7.2,2.5s5.4,1.7,7.3,2 c1.9,0.3,3.7,0.7,7.4,1.8c7.3,2,7.2,2.2,14.6,3.9c1.2,0.2,2.4,0.6,3.5,0.9c2.8,0.9,5.5,2,8.4,2.4c2.1,0.2,4-0.1,6-0.2 c1.6-0.1,3.3-0.2,5,0c7.5,0.7,7.5,0.9,15,1.4c5.8,0.2,7.1,0.6,10.8,0.7c1.1,0,2.5,0,4.3,0c4.1,0,6,0.3,8.1,0.6 c1.7,0.2,3.6,0.3,7.1,0.1c3.8-0.2,5.7-0.4,7.6-0.6c1.9-0.2,3.8-0.3,7.6-0.8c3.8-0.6,5.6-1,7.5-1.5c1.8-0.5,3.7-0.8,7.4-1.6 c1.4-0.3,2.6-0.5,3.6-0.7c3.7-0.7,5.1-0.8,9.6-1.9c0.5-0.1,1.1-0.3,1.7-0.4c7.4-1.9,7.1-2.9,14.3-5.1c3.6-1.1,5.2-2.2,6.9-3 c1.7-0.9,3.4-1.7,6.9-3.2c1.9-0.8,3.3-1.2,4.5-1.5c3-0.7,4.9-0.4,8.8-2.2c0.4-0.2,0.8-0.3,1.3-0.6c6.9-3.3,5.7-5.4,12.3-9 c3.3-1.8,4.9-2.8,6.6-3.6c1.6-0.9,3.2-1.7,6.1-3.5c0.2-0.1,0.3-0.2,0.5-0.3c3.1-2.1,5-2.7,6.9-3.2c0.1,0,0.2-0.1,0.3-0.1 c1.8-0.5,3.7-1.2,6.6-3.4c3-2.3,4.4-3.6,5.7-5c1.3-1.4,2.6-2.9,5.5-5.3c2.9-2.4,4.3-3.8,5.6-5.1c1.3-1.3,2.7-2.7,5.5-5.2 c1.1-1.2,2-2,2.8-2.8c1-1,1.8-1.8,2.6-2.6c0.8-0.8,1.6-1.7,2.7-2.8c0.7-0.7,1.5-1.6,2.5-2.7c5.1-5.6,5.5-5.3,10.3-11.1 c2.4-2.9,3.6-4.4,4.7-6c1.1-1.5,2.2-3,4.5-6.1c1.6-2.3,2.5-3.8,3.1-5.1c0.2-0.5,0.5-1,0.7-1.4c0.7-1.4,1.4-2.8,2.8-5.1 c0.3-0.5,0.6-1,0.9-1.5c3.8-6.5,5-5.8,8.6-12.5c3.6-6.7,3.7-6.6,7-13.4c0.5-1,0.9-1.9,1.2-2.7c0.7-1.8,1.1-3.1,1.5-4.4 c0.3-1,0.6-1.9,1-3.1c0.4-1.1,0.9-2.3,1.5-4c1.3-3.6,2-5.3,2.7-7.1c0.7-1.8,1.5-3.5,2.5-7.1c2.2-7.3,2.6-7.1,4.3-14.5 c0.2-0.6,0.3-1.2,0.4-1.7c0.8-3.9,0.5-5.6,0.7-8.4c0.1-1.3,0.2-2.8,0.7-5c0.8-3.7,1.1-5.5,1.6-7.4c0.4-1.8,0.9-3.7,1.4-7.4 c0.5-5.6,0.3-7.1,0.4-10.5c0-1.2,0.1-2.6,0.2-4.6s0.1-3.4,0.1-4.6c0.1-3.4,0-4.9-0.1-10.4C499.5,254.7,500.2,254.7,499.8,247.1z" fill="#231815"/></g><g id="change3_2"><path d="M143.3,27.3C261.3-26.9,401,25,455.2,143.1s2.4,257.7-115.7,311.9S81.8,457.4,27.6,339.3 C-25,224.4,22.4,89.4,133.5,32.1" fill="#f08419"/></g><g id="change4_1"><path d="M133.2,53.5c-5.7,3.5-5.7,3.6-11.3,7.2c-5.5,3.8-5.6,3.6-11,7.6c-5.2,4.2-5.4,3.9-10.6,8.1 c-5,4.5-5.6,3.8-10.5,8.3c-4.7,4.8-4.7,4.8-9.5,9.5c-4.5,5-4.1,5.3-8.5,10.4c-4.2,5.2-4.3,5.2-8.3,10.5c-2.1,2.7-2.7,4.2-3.6,5.7 c-0.8,1.5-1.6,3-3.4,5.8c-1.9,2.8-2.5,4.4-3.2,5.9c-0.7,1.5-1.3,3.1-3,6c-1.7,2.9-2.8,4.2-3.8,5.6c-1,1.4-2.1,2.7-3.5,5.8 c-2.9,6.1-1.3,6.8-3.8,13c-1.2,3.1-1.9,4.6-2.5,6.2c-0.6,1.6-1.1,3.1-2.2,6.3c-2,6.4-3.7,5.9-5.3,12.4c-1.5,6.6-1,6.7-2.1,13.3 c-0.6,3.3-0.8,5-1,6.6c-0.2,1.7-0.5,3.3-0.8,6.7c-0.6,6.7-0.7,6.7-1.2,13.3c-0.2,6.7-0.6,6.7-0.8,13.4c0.2,6.7,0.1,6.7,0.5,13.4 c0.6,6.7,1.1,6.6,2,13.3c0.8,6.6,0,6.8,1.2,13.4c0.6,3.3,0.9,5,1.2,6.6c0.3,1.6,0.7,3.3,1.4,6.6c1.8,6.5,2.2,6.4,4.2,12.8 c2.2,6.3,1.8,6.5,4.3,12.7c2.4,6.3,2.3,6.3,5.1,12.4c2.8,6.1,3.9,5.6,6.9,11.5c3.3,5.8,2.8,6.1,6.3,11.8c3.6,5.6,4,5.4,7.9,10.8 c3.8,5.5,4.1,5.3,8.2,10.5c4.3,5.1,3.8,5.5,8.3,10.5c4.7,4.8,4.1,5.3,9,9.9c4.8,4.7,5.5,3.9,10.5,8.3c5.1,4.4,5.3,4.1,10.5,8.2 c5.5,3.8,4.5,5.1,10.2,8.8c5.7,3.6,6.1,3,11.9,6.3c5.8,3.4,5.3,4.2,11.3,7.4c6.1,2.9,6.6,1.8,12.7,4.5c3.1,1.2,4.6,2,6.1,2.9 c1.5,0.8,3,1.6,6.2,2.7c3.2,1.1,4.8,1.7,6.4,2.2c1.6,0.5,3.2,0.9,6.5,1.9c3.2,1,4.9,1.3,6.5,1.6c1.6,0.4,3.3,0.7,6.6,1.5 c6.6,1.3,6.7,0.9,13.3,2c3.3,0.4,5,0.7,6.7,0.9c1.7,0.2,3.3,0.5,6.7,0.7c6.7,0.5,6.7,0.5,13.4,0.6c6.7,0.2,6.7-0.7,13.4-0.9 c6.7-0.2,6.7,0.4,13.4,0c6.7-0.8,6.7-0.3,13.4-1.3c6.6-1.2,6.5-1.7,13.1-3.2c6.5-1.5,6.5-1.7,12.9-3.5c3.2-0.9,4.8-1.6,6.3-2.3 c1.5-0.7,3.1-1.4,6.2-2.4c6.2-2.4,6.3-2.2,12.5-4.8c3.3-1.5,7-2.1,10.2-4c2.9-1.7,5.1-3.9,8-5.5c5.8-3.4,5.9-3.1,11.5-6.8 c5.6-3.6,5.7-3.4,11.2-7.3c5.4-3.9,5.8-3.4,11.1-7.5c5-4.4,5.3-4.2,10.1-8.8c4.9-4.6,4.6-4.9,9.2-9.7c2.3-2.4,3.5-3.6,4.6-4.8 c1.1-1.2,2.3-2.5,4.5-5c4.2-5.2,3.8-5.6,7.8-10.9c3.8-5.5,3.4-5.8,7-11.4c3.6-5.6,4.8-4.9,8.1-10.7c3.3-5.9,1.7-6.7,4.8-12.6 c2.7-6.1,3.1-5.9,5.6-12.1c2.4-6.2,4.1-5.6,6.2-12c2.2-6.4,1.2-6.7,3.1-13.1c1.7-6.5,1.4-6.6,2.9-13.1c0.6-3.3,0.9-4.9,1.1-6.6 c0.3-1.7,0.6-3.3,1-6.6c0.8-6.6,1.3-6.6,1.7-13.3c0.6-6.7,0.4-6.7,0.6-13.4c0.1-6.7-0.8-6.7-0.9-13.4c-0.5-6.7,0.4-6.7-0.2-13.4 c-0.4-3.3-0.6-5-0.8-6.7c-0.1-1.7-0.3-3.3-1-6.6c-0.6-3.3-1-4.9-1.4-6.6c-0.5-1.6-1-3.2-1.7-6.5c-0.7-3.3-1.1-4.9-1.5-6.5 s-0.8-3.3-1.7-6.5c-2.1-6.4-1.9-6.4-4.1-12.8c-2.5-6.2-3.3-5.9-6-12c-2.7-6.1-2.3-6.3-5.4-12.2c-3.1-6-3.7-5.6-7-11.4 c-3.6-5.6-3.6-5.6-7.4-11.1c-3.9-5.4-3.3-5.8-7.5-11.1c-4.1-5.3-3.8-5.5-8.2-10.6c-4.5-5-5.2-4.3-9.9-9.1 c-4.9-4.6-4.8-4.6-9.9-8.9c-5-4.4-4.1-5.4-9.4-9.6c-5.3-4.1-5.9-3.3-11.3-7.2c-5.6-3.6-4.9-4.7-10.7-8.1 c-5.8-3.3-6.4-2.4-12.3-5.4c-5.9-3.1-5.6-3.7-11.7-6.5c-6.2-2.6-6.2-2.7-12.4-5.1c-3.2-1-4.8-1.6-6.4-2.1s-3.2-1-6.4-1.9 c-6.5-1.9-6.5-1.5-13.1-3c-6.5-1.6-6.6-1.4-13.1-2.6c-6.6-1-6.7-0.9-13.3-1.7c-6.7-0.4-6.7,0.1-13.4-0.1c-6.7-0.1-6.7-1.1-13.4-1 c-6.7,0.2-6.7-0.2-13.4,0.3c-3.3,0.3-5,0.6-6.6,1c-1.6,0.3-3.3,0.7-6.6,1.2c-6.6,1-6.6,1.2-13.1,2.5c-6.5,1.5-6.4,2-12.8,3.8 c-6.4,1.8-6.5,1.7-12.8,3.8c-6.3,2.3-6.5,1.7-12.7,4.3c-1.7,0.7-1.9,2.8-1,4.8c0,0,2.3,2.8,3.9,2.1c6-2.5,6.3-1.6,12.4-3.8 c6.1-2,6.3-1.5,12.4-3.3c6.2-1.7,5.8-3.3,12.1-4.8c6.3-1.3,6.4-1.1,12.8-2.1c3.2-0.5,4.9-0.3,6.5-0.1c1.6,0.2,3.3,0.4,6.5,0.1 c6.4-0.5,6.4-1,12.8-1.3c6.4-0.1,6.4-1.1,12.9-0.9c6.5,0.2,6.5,0.4,12.9,0.9c6.4,0.8,6.4,1.2,12.8,2.1c6.3,1.2,6.4,0.8,12.7,2.3 c6.3,1.4,6.2,1.9,12.4,3.7c3.1,0.8,4.6,1.5,6.1,2.1c1.5,0.6,3,1.2,6,2.2c6,2.3,6.1,2,12,4.6c5.8,2.7,6,2.4,11.7,5.4 c5.8,2.9,5.7,3.1,11.3,6.3c5.6,3.3,5.4,3.6,10.8,7c5.2,3.8,6,2.7,11.1,6.7c5.1,4,4.9,4.2,9.8,8.5c2.5,2.1,3.7,3.2,4.8,4.3 c1.2,1.1,2.4,2.2,4.7,4.4c4.5,4.6,3.8,5.3,8.1,10.1c4.2,4.9,4.7,4.4,8.7,9.5c4,5,3.5,5.4,7.3,10.7c3.7,5.3,3.8,5.2,7.3,10.6 c3.1,5.6,3.4,5.5,6.3,11.2c2.9,5.7,3.3,5.6,5.9,11.5c2.7,5.8,3.1,5.7,5.6,11.7c2.2,6.1,0.6,6.6,2.6,12.7c0.9,3.1,1.4,4.6,2,6.1 c0.6,1.5,1.1,3,1.8,6.2c0.7,3.1,1.1,4.7,1.4,6.3c0.3,1.6,0.6,3.2,1.1,6.3c0.6,3.2,1,4.7,1.4,6.3c0.4,1.6,0.8,3.1,1.2,6.4 c0.6,6.4,1.1,6.4,1.6,12.9c0.1,6.5-1.5,6.5-1.7,12.9c-0.2,6.4,0.5,6.5,0,12.9c-0.4,6.4,0.3,6.5-0.5,12.9c-0.4,3.2-0.9,4.8-1.3,6.3 c-0.5,1.6-0.9,3.1-1.5,6.3c-1.4,6.3-1,6.4-2.6,12.6c-1.8,6.2-2.4,6-4.6,12.1c-2,6.1-0.6,6.6-3,12.7c-2.4,6-2.5,6-5.1,11.9 c-3,5.8-4.4,5-7.5,10.6c-3.2,5.6-2.1,6.2-5.6,11.6c-3.4,5.5-3.2,5.6-6.9,10.9c-3.9,5.2-5,4.3-9.1,9.3c-4.3,4.8-3.8,5.3-8.3,9.9 c-4.4,4.7-3.9,5.2-8.6,9.6c-4.7,4.5-5.1,4-9.9,8.3c-5.1,4-5.6,3.4-10.8,7.2c-5.2,3.7-5.3,3.7-10.7,7.1c-5.4,3.5-5.2,3.9-10.7,7.1 c-5.7,3.1-5.5,3.4-11.3,6.3c-0.1,0.1-0.2,0.1-0.3,0.2c-1.6,0.5-3.2,0.9-6.1,2.3c-5.9,2.5-6.2,1.9-12.2,4.3c-3,1-4.4,2-5.8,2.9 c-1.4,0.9-2.8,1.9-5.9,2.7c-6.2,1.8-6.3,1.7-12.6,3.1c-6.3,1.5-6.6-0.2-13,1c-6.3,1-6.3,1.4-12.7,2.3c-6.4,0.4-6.3,1.7-12.8,1.9 c-6.5,0.1-6.5,0.3-13,0c-6.5-0.1-6.5-0.6-12.9-1.1c-3.2-0.2-4.8-0.4-6.4-0.6c-1.6-0.2-3.2-0.4-6.4-0.7c-6.4-1.1-6.3-1.5-12.6-2.7 c-3.1-0.7-4.7-1.2-6.2-1.6c-1.6-0.4-3.1-0.9-6.2-1.8c-3.1-0.9-4.7-1.3-6.2-1.7c-1.5-0.5-3.1-0.9-6.1-2c-3.1-1-4.6-1.5-6.1-2.1 c-1.5-0.6-3-1.2-6-2.3c-5.9-2.6-5.9-2.6-11.7-5.4c-5.7-3-5.7-3-11.3-6.3c-5.6-3.2-6.1-2.3-11.6-5.8c-5.4-3.5-5.1-4-10.4-7.7 c-5-4-5.3-3.8-10.2-8c-4.9-4.2-4.2-5-8.8-9.5c-2.3-2.2-3.6-3.2-4.8-4.3c-1.2-1.1-2.4-2.2-4.6-4.5c-4.3-4.8-3.9-5.1-8-10.1 c-3.9-5.1-4.3-4.8-8-10.1c-3.8-5.2-3.7-5.3-7.2-10.7c-3.4-5.5-3.5-5.4-6.8-11c-2.9-5.8-3.7-5.4-6.4-11.3 c-2.7-5.9-1.2-6.5-3.6-12.5c-2.4-6-2.7-5.9-4.8-12c-1.9-6.2-1.8-6.2-3.5-12.4c-0.7-3.1-1.3-4.7-1.9-6.2c-0.6-1.5-1.2-3.1-1.7-6.2 c-1.2-6.4-1.7-6.3-2.5-12.7c-0.9-6.4,1.2-6.6,0.6-13c-0.4-6.4-0.8-6.4-1-12.9c0.2-6.4-0.6-6.5-0.4-12.9c0.4-6.5,1.3-6.4,1.9-12.8 c0.3-3.2,0.5-4.8,0.7-6.4c0.2-1.6,0.4-3.2,0.9-6.4c1-6.4,2.1-6.1,3.6-12.4c1.5-6.3,0-6.7,2-12.9c1-3.1,1.4-4.6,1.9-6.2 c0.5-1.5,1.1-3,2.3-6.1c2.4-6,3.8-5.4,6.6-11.2c1.4-2.9,1.8-4.5,2.2-6.1c0.4-1.6,0.9-3.2,2.5-6c1.6-2.8,2.3-4.3,2.9-5.8 c0.7-1.5,1.3-3,3.1-5.7c1.8-2.7,2.9-3.9,4.1-5s2.2-2.4,4.2-4.9c3.9-5.1,3.4-5.5,7.5-10.5c4.2-4.9,3.6-5.4,7.9-10.3 c4.5-4.6,4.7-4.4,9.3-9c4.8-4.3,5.4-3.7,10.2-8c5-4.1,5.1-3.9,10.2-7.9c5.2-3.8,4.9-4.2,10.2-7.9c5.4-3.5,5.3-3.7,10.8-7.1 c1.5-0.9,0.8-4.8,0.8-4.8C136.5,53,134.8,52.6,133.2,53.5z" fill="#ffffff"/></g><g id="change5_1"><path d="M137.5,60.5c-5.5,3.3-5.3,3.7-10.7,7.2c-5.3,3.7-5.5,3.4-10.7,7.2c-5,4-5.4,3.6-10.4,7.6 c-4.8,4.3-6,3-10.8,7.4c-4.6,4.6-4.7,4.5-9.3,9.2c-4.3,4.9-3.7,5.4-7.9,10.3c-4,5.1-4.3,4.9-8.3,10c-3.8,5.3-2.7,6.1-6.2,11.4 c-1.8,2.7-2.2,4.3-2.7,5.9c-0.5,1.6-1,3.2-2.5,6c-1.6,2.8-3,3.9-4.3,5s-2.7,2.3-4.1,5.2c-2.9,5.9,0.3,7.2-2.1,13.2 c-2.4,6-2.8,5.8-4.8,11.9c-2,6.1-5.3,5.2-6.8,11.6c-1.5,6.4-0.2,6.7-1.2,13.1c-0.6,3.2-0.7,4.8-0.9,6.4c-0.2,1.6-0.4,3.2-0.7,6.4 c-0.6,6.4-0.7,6.4-1.1,12.9c-0.2,6.5-0.9,6.4-1.1,12.9c0.2,6.5,0.1,6.5,0.5,13c0.5,6.5,1.8,6.4,2.7,12.7c0.8,6.4-0.8,6.6,0.4,13 c0.6,3.2,0.8,4.8,1.1,6.4c0.3,1.6,0.6,3.2,1.3,6.4c1.7,6.3,2.6,6,4.5,12.2c2.1,6.1,1.5,6.3,4,12.4c2.3,6.1,2.1,6.2,4.7,12.1 c2.7,5.9,4.7,4.9,7.6,10.7c3.3,5.5,2.2,6.1,5.7,11.6c3.5,5.5,4.3,4.9,8,10.1c3.7,5.3,4.1,4.9,8.1,10c4.1,4.9,3.2,5.7,7.6,10.5 c4.5,4.6,3.6,5.5,8.3,10c4.7,4.5,6,3.1,10.8,7.3c4.9,4.2,5.2,3.8,10.3,7.7c5.3,3.7,3.5,6.2,9,9.7s6.3,2.1,12,5.3 c2.8,1.6,3.9,2.9,5.1,4.2c1.2,1.3,2.4,2.5,5.3,4c5.9,2.8,6.9,0.7,12.8,3.2c6,2.3,5.3,4.1,11.6,6.2c6.2,2.1,6.1,2.3,12.4,4 c6.3,1.8,6.4,1.3,12.7,2.8c6.4,1.1,6.5,0.5,13,1.5c6.4,0.8,6.4,1.1,12.9,1.5c6.5,0.5,6.5,0.3,13,0.5c3.2,0.1,4.9-0.3,6.5-0.7 c1.6-0.4,3.2-0.9,6.4-0.9c6.4-0.3,6.5,1.3,13,0.8c6.4-0.9,6.6,0.2,13-0.9c6.4-1.2,6.2-2.3,12.5-3.8c6.3-1.4,6.2-1.9,12.4-3.6 c6.2-1.9,5.8-3.2,11.9-5.2c6-2.4,6.2-1.9,12.1-4.5c3.2-1.5,7.2-1.2,10.1-3.2c2.7-1.8,4.3-4.9,7.1-6.5c5.6-3.2,5.7-3,11.1-6.5 c5.4-3.4,5.6-3.2,10.9-6.9c5.1-3.9,6.2-2.5,11.3-6.6c4.9-4.3,5.2-4,9.8-8.5c4.7-4.5,4.1-5.1,8.6-9.7c4.4-4.7,4.7-4.5,9-9.4 c4-5.1,3.2-5.7,7-11c3.8-5.3,2.6-6,6.1-11.4c1.8-2.7,3.2-3.7,4.6-4.7c1.4-1,2.9-2.1,4.5-4.9c3-5.8,0.2-7.2,3-13 c2.6-5.9,3.3-5.6,5.6-11.6c2.4-5.9,5.5-4.8,7.6-11s0.3-6.7,2.1-12.9c1.4-6.3,1.2-6.4,2.4-12.7c1.1-6.4,1.1-6.4,1.9-12.8 c0.9-6.4,1.4-6.3,1.9-12.8c0.3-3.2,0.3-4.8,0.3-6.5c0-1.6,0.1-3.2,0.1-6.5c-0.1-6.5-1.6-6.4-1.8-12.9c-0.2-3.2,0-4.8,0.3-6.5 c0.3-1.6,0.6-3.3,0.2-6.5c-0.8-6.4-0.4-6.5-1.6-12.9c-1.1-6.4-2.2-6.2-3.6-12.5c-1.6-6.3-1.3-6.4-3.1-12.6c-1-3.1-1.5-4.6-1.9-6.2 c-0.4-1.6-0.8-3.1-2.1-6.2c-2.4-6.1-4.2-5.3-6.9-11.1c-1.3-2.9-1.8-4.5-2.3-6c-0.5-1.5-1-3.1-2.5-6c-3.2-5.6-4-5.2-7.3-10.6 c-3.5-5.4-3.6-5.3-7.4-10.5c-3.7-5.2-2.8-5.9-6.8-11c-4-5-3.3-5.6-7.6-10.5c-4.5-4.6-5.7-3.5-10.3-8c-4.6-4.4-4.9-4.2-9.7-8.4 c-2.4-2.1-3.2-3.7-4-5.2c-0.8-1.5-1.7-3.1-4.2-5.1c-5.3-3.8-6.2-2.5-11.5-6.1c-5.4-3.4-4.1-5.6-9.8-8.8c-5.6-3.3-6.8-1.1-12.5-4.1 c-5.8-2.8-5.1-4.3-11-7c-6.1-2.3-5.9-2.7-12.1-4.8c-6.2-2.1-6.2-1.9-12.5-3.7s-6.5-0.9-12.8-2.4c-6.4-1.3-6.3-1.3-12.7-2.4 c-6.4-0.8-6.4-0.8-12.9-1.3c-6.5-0.5-6.5,1-13,0.8c-6.4-0.2-6.4-1.8-12.9-1.7c-3.2,0.1-4.9,0-6.5-0.1c-1.6-0.1-3.3-0.2-6.5,0.1 c-6.5,0.7-6.3,2-12.7,2.9c-6.4,1.1-6.3,1.4-12.6,2.8c-3.2,0.7-4.6,1.4-6.1,2.1c-1.5,0.7-3,1.4-6,2.3c-6.1,1.9-6.3,1.5-12.3,3.6 c-6,2.3-6.5,1.2-12.4,3.7c-1.6,0.7-1,4.5,0.8,8.4c0,0,3.7,6,5.2,5.3c5.5-2.4,6.2-0.7,11.8-2.8c5.6-2,6-0.9,11.6-2.6 c2.8-0.8,4-2.1,5.3-3.3c1.2-1.2,2.5-2.4,5.4-3.1c5.9-1.3,6-0.9,11.9-1.9c6-0.9,6.4,2.2,12.2,1.5c2.9-0.3,4.4-0.7,5.9-1 c1.5-0.4,2.9-0.8,5.9-0.9c5.9-0.2,5.9-2.3,12-2.1c6,0.1,6,0.3,12,0.7c6,0.5,5.9,1.6,11.8,2.3c5.9,1,6,0.7,11.8,1.9 c5.8,1.4,5.7,2.1,11.4,3.7c5.8,1.6,5.5,2.4,11.1,4.3c5.6,1.9,5.7,1.7,11.3,3.8c5.4,2.5,5.6,2.1,10.9,4.7c5.3,2.7,5.3,2.8,10.4,5.8 c5.2,2.9,4.9,3.4,9.9,6.6c4.9,3.3,6.2,1.6,11.1,5.1c2.4,1.9,3.4,2.9,4.5,4c1.1,1.1,2.1,2.1,4.4,4.1c4.6,3.9,4.7,3.7,9,7.9 c4.4,4.1,2.7,5.8,6.8,10c3.9,4.5,4.8,3.7,8.5,8.4c3.7,4.7,2.9,5.3,6.3,10.1c3.5,4.8,3.8,4.6,7.1,9.6c3.1,5.1,3.1,5.1,6,10.3 c2.6,5.3,3.4,5,5.8,10.4c2.5,5.4,3.7,4.9,5.9,10.5c2.2,5.6-1.1,6.8,0.9,12.3c1.6,5.7,2.7,5.4,4.1,11.1c1.3,5.8,1.4,5.8,2.4,11.6 c1.1,5.8,2.8,5.6,3.5,11.5c0.4,3,0.8,4.4,1.2,5.9c0.4,1.5,0.8,3,1,6c0.2,6-3.4,6.1-3.4,12c-0.2,5.9,1.2,6,0.7,11.9 c-0.5,5.9,1.3,6.1,0.5,12.1c-0.7,6-2.2,5.7-3.2,11.6c-1.1,5.9-0.6,6-2,11.8c-1.7,5.7-3.2,5.3-5,10.9c-1.9,5.6,1.2,6.7-1.1,12.3 c-2.2,5.6-2.2,5.6-4.6,11.1c-2.6,5.4-5.7,3.9-8.5,9.1c-1.5,2.6-1.7,4.1-2,5.7c-0.2,1.6-0.5,3.2-2.1,5.7c-3.2,5.1-2.4,5.6-5.9,10.5 c-3.5,4.9-5.9,3.1-9.5,7.8c-3.9,4.5-3.2,5.1-7.2,9.5c-4.1,4.3-3,5.4-7.4,9.5c-4.3,4.2-4.9,3.5-9.4,7.5c-4.6,3.8-5.8,2.4-10.5,6 c-4.9,3.4-4.9,3.3-9.9,6.5c-5,3.2-4.4,4.2-9.5,7.2c-5.2,2.9-4.9,3.5-10.2,6.3c-0.1,0.1-0.2,0.1-0.3,0.2c-1.6,0.2-3.1,0.4-5.9,1.7 c-5.4,2.5-5.9,1.2-11.4,3.5c-5.6,1.9-4.5,5.3-10.3,7.1c-5.8,1.6-5.9,1.4-11.8,2.7c-5.9,1.4-6.5-1.7-12.3-0.7 c-5.8,1-5.7,1.9-11.6,2.7c-5.9,0.5-5.8,2.6-11.8,3c-3,0.1-4.5,0.1-6,0.1s-3,0-6-0.1c-6-0.1-6-1-12-1.5c-6-0.4-6-0.3-12-1 c-5.9-0.9-5.8-1.9-11.7-2.9c-5.8-1.4-5.7-2-11.4-3.6c-5.7-1.6-5.9-1.1-11.5-3.1c-5.7-1.9-5.7-1.8-11.3-3.9 c-5.5-2.3-5.4-2.6-10.8-5.1c-2.7-1.4-3.9-2.1-5.2-2.9c-1.3-0.8-2.6-1.5-5.1-3.1c-5.2-2.9-6.3-1.1-11.4-4.3c-5.1-3.2-4.5-4-9.5-7.5 c-4.7-3.7-5-3.4-9.6-7.3c-4.5-4-3.2-5.5-7.4-9.6c-4.3-4.1-5-3.5-9.1-7.8c-4-4.4-3.2-5.1-7-9.7c-3.6-4.7-4.2-4.2-7.7-9.1 c-3.5-4.8-3.5-4.8-6.7-9.9c-3.2-5-3.5-4.8-6.6-10c-2.7-5.3-4.1-4.6-6.6-10.1c-2.5-5.5,0.4-6.8-1.7-12.3c-2.2-5.5-3-5.2-5-10.9 c-1.8-5.7-1.7-5.7-3.3-11.5c-1.3-5.8-3.2-5.4-4.2-11.3c-1.1-5.9-2.2-5.7-2.9-11.7c-0.8-6,3-6.4,2.5-12.3 c-0.4-5.9-1.4-5.9-1.6-11.9c0.2-6-1.4-6-1.2-12c0.4-6,1.9-5.9,2.5-11.8c0.2-3,0.4-4.5,0.5-6s0.2-3,0.7-6c1-5.9,2.9-5.5,4.2-11.3 c1.4-5.8-1.6-6.6,0.2-12.4c0.9-2.9,1.3-4.3,1.8-5.8c0.5-1.4,1-2.8,2.1-5.7c2.3-5.6,5.3-4.4,7.9-9.7c1.3-2.7,1.4-4.3,1.5-5.9 c0.1-1.6,0.3-3.2,1.8-5.8c1.5-2.6,2-4.1,2.5-5.5c0.5-1.4,1-2.9,2.7-5.4c3.4-5,5.5-3.6,9-8.4c3.6-4.7,2.8-5.3,6.6-10 c3.9-4.5,2.8-5.5,6.8-10c4.2-4.3,4.7-3.9,8.9-8.1c4.5-4,5.7-2.7,10.1-6.7c4.6-3.7,4.9-3.5,9.5-7.2c4.8-3.5,4.2-4.4,9.1-7.8 c5-3.3,4.7-3.8,9.8-6.9c1.4-0.8-1.2-8-1.2-8C141.4,61.2,139,59.6,137.5,60.5z" fill="#f08419"/></g><g id="change2_3"><path d="M137.7,58.5c-5.6,3.4-5.5,3.4-11,7c-5.4,3.7-5.5,3.5-10.8,7.3c-5.1,4-5.3,3.8-10.4,7.9 c-4.9,4.3-5.4,3.7-10.3,8c-4.6,4.6-4.6,4.6-9.3,9.2c-4.4,4.9-4,5.2-8.3,10.1c-4.1,5.1-4.2,5-8.2,10.2c-2,2.6-2.7,4.1-3.5,5.5 c-0.8,1.4-1.5,2.9-3.3,5.6c-1.8,2.7-2.5,4.2-3.1,5.7c-0.6,1.5-1.3,3-2.9,5.8c-3.2,5.6-4.3,5.1-7.2,11c-2.9,5.9-1.3,6.6-3.7,12.6 c-1.2,3-1.9,4.5-2.5,6c-0.6,1.5-1.1,3-2.1,6.1c-2,6.2-3.7,5.7-5.2,12.1c-0.8,3.2-1,4.8-1.2,6.5c-0.2,1.6-0.4,3.3-0.9,6.5 c-0.6,3.2-0.8,4.8-1,6.4c-0.2,1.6-0.5,3.2-0.8,6.5c-0.6,6.5-0.7,6.5-1.2,13c-0.2,6.5-0.6,6.5-0.8,13c0.1,6.5,0.1,6.5,0.4,13 c0.2,3.3,0.6,4.9,0.9,6.5s0.6,3.2,1.1,6.4c0.4,3.2,0.4,4.9,0.4,6.5c0.1,1.6,0.2,3.3,0.7,6.5c0.5,3.2,0.8,4.8,1.2,6.4 c0.3,1.6,0.6,3.2,1.4,6.4c1.7,6.3,2.2,6.2,4,12.4c2.2,6.2,1.7,6.3,4.2,12.4c2.4,6.1,2.2,6.1,4.9,12.1c2.7,6,3.8,5.4,6.7,11.2 c3.2,5.6,2.7,5.9,6.1,11.5c3.5,5.5,3.9,5.3,7.7,10.5c3.7,5.3,4,5.1,8,10.3c4.1,5,3.7,5.4,8.1,10.2c4.5,4.7,4,5.2,8.8,9.7 c4.7,4.5,5.4,3.8,10.3,8.1c4.9,4.2,5.2,3.9,10.2,8c5.3,3.7,4.4,5,9.9,8.6c5.5,3.5,5.9,2.9,11.6,6.1c5.6,3.3,5.2,4.1,11,7.2 c5.9,2.8,6.4,1.7,12.4,4.3c6.1,2.3,5.7,3.4,11.9,5.4c6.2,2.1,6.2,2.2,12.5,4c3.1,0.9,4.8,1.2,6.4,1.6c1.6,0.4,3.2,0.7,6.4,1.4 c6.4,1.2,6.5,0.9,12.9,1.9c6.5,0.8,6.5,1,13,1.5c3.3,0.2,4.9,0.3,6.5,0.4c1.6,0,3.3,0.1,6.5,0.1c6.5,0.2,6.5-0.8,13-0.9 c6.5-0.3,6.5,0.4,13.1-0.1c6.5-0.9,6.6-0.2,13-1.3c6.4-1.2,6.3-1.7,12.7-3.2c6.4-1.4,6.3-1.7,12.6-3.5c6.2-1.9,6-2.6,12.2-4.7 c6-2.4,6.2-2.1,12.1-4.7c3.2-1.5,6.8-2.1,9.9-3.9c2.8-1.6,4.9-3.8,7.7-5.5c5.6-3.2,5.7-3.1,11.2-6.6s5.5-3.4,10.9-7.2 c5.2-3.9,5.7-3.2,10.8-7.4c4.9-4.3,5.1-4.1,9.8-8.6c4.8-4.5,4.4-4.8,8.9-9.5c4.4-4.8,4.5-4.7,8.8-9.6c4-5.2,3.7-5.4,7.5-10.7 c3.8-5.3,3.2-5.7,6.7-11.2c1.8-2.7,2.9-3.9,4-5.2c1.1-1.2,2.3-2.5,3.9-5.3c3-5.8,1.7-6.5,4.5-12.3c2.6-5.9,3-5.8,5.4-11.8 c2.4-6,3.9-5.5,6-11.7c2-6.2,1.1-6.5,2.9-12.8c1.4-6.4,1.4-6.4,2.6-12.8c1.1-6.4,1.2-6.4,2-12.9c0.9-6.5,1.1-6.4,1.6-12.9 s0.2-6.5,0.4-13c-0.1-6.5-0.8-6.5-1.1-13c-0.2-3.2-0.2-4.9-0.1-6.5c0.1-1.6,0.2-3.3-0.3-6.5c-0.8-6.5-0.6-6.5-1.8-12.9 c-1.1-6.4-1.8-6.3-3.2-12.7c-1.6-6.3-1.5-6.4-3.3-12.6c-1-3.1-1.5-4.6-2-6.2c-0.5-1.6-0.9-3.1-2.2-6.2c-1.2-3-2-4.5-2.9-5.9 c-0.9-1.4-1.8-2.8-3.1-5.7c-1.3-3-1.9-4.5-2.6-6c-0.6-1.5-1.3-3-2.7-5.9c-3.2-5.7-3.6-5.5-7-11c-3.5-5.5-3.6-5.4-7.4-10.7 c-3.7-5.3-3.4-5.6-7.4-10.7c-4.1-5-3.8-5.3-8.1-10.2c-2.3-2.4-3.5-3.4-4.8-4.4s-2.6-2-4.9-4.3c-4.7-4.5-4.8-4.3-9.7-8.6 c-4.9-4.2-4.2-5.2-9.3-9.3c-5.3-3.8-5.7-3.2-11.2-6.8c-5.5-3.5-4.8-4.6-10.5-7.8c-5.7-3.3-6.3-2.1-12.1-5.1 c-5.9-2.8-5.5-3.6-11.5-6.2c-3-1.2-4.5-1.8-6.1-2.4c-1.5-0.7-3-1.2-6.1-2.3c-3.1-1-4.7-1.6-6.2-2c-1.6-0.4-3.2-0.9-6.3-1.7 c-3.1-0.9-4.7-1.2-6.4-1.5c-1.6-0.3-3.2-0.6-6.4-1.3c-6.4-1.2-6.4-1.3-12.8-2.3c-3.2-0.4-4.9-0.6-6.5-0.8 c-1.6-0.2-3.2-0.4-6.5-0.6c-3.3-0.2-4.9-0.2-6.5-0.1c-1.6,0.1-3.3,0.3-6.5,0.2c-6.5-0.2-6.5-1-13-0.8c-6.5,0.3-6.5-0.1-13.1,0.5 c-6.5,0.7-6.4,1.4-12.9,2.4c-6.4,1.1-6.4,1.3-12.7,2.7c-3.2,0.7-4.7,1.3-6.2,1.9c-1.5,0.5-3.1,1.1-6.2,2 c-6.2,1.9-6.3,1.7-12.4,3.9c-6.1,2.3-6.3,1.8-12.3,4.3c-1.6,0.7-1.8,2.8-0.9,4.8c0,0,2.3,2.8,3.9,2.1c5.8-2.5,6.1-1.6,12-3.9 c5.9-2.1,6.1-1.6,12-3.4c3-0.9,4.4-1.7,5.8-2.5s2.8-1.7,5.9-2.3c6.1-1.4,6.2-1.2,12.4-2.3c6.2-1,6.4,0.6,12.6-0.1 c6.2-0.6,6.2-1.1,12.4-1.4c6.3-0.2,6.2-1.3,12.5-1.1c3.1,0.1,4.7,0.1,6.3,0.2c1.6,0.1,3.1,0.2,6.3,0.5c3.1,0.2,4.7,0.5,6.2,0.8 c1.5,0.3,3.1,0.6,6.2,1c6.2,1,6.2,0.9,12.4,2.1c3.1,0.7,4.6,1.2,6.1,1.6c1.5,0.4,3,0.9,6,1.8c3,0.9,4.5,1.4,6,1.9 c1.5,0.6,2.9,1.2,5.9,2.2c3,1,4.5,1.5,5.9,2c1.5,0.5,3,1,5.9,2.2c5.7,2.5,5.8,2.4,11.5,5.1c5.6,2.9,5.6,2.8,11,6 c5.5,3.1,5.3,3.4,10.6,6.7c5.2,3.4,5.8,2.6,10.9,6.3c4.9,3.9,4.8,4.1,9.6,8.2c4.8,4.1,4.9,4,9.4,8.3c2.3,2.1,3.2,3.5,4.1,4.8 c0.9,1.3,1.8,2.6,3.9,4.9c4.1,4.7,4.6,4.3,8.5,9.2c3.8,4.9,3.6,5.2,7.1,10.3c3.7,5.1,3.8,5,7.2,10.2c3.3,5.3,3.2,5.4,6.3,10.8 c1.4,2.8,2.2,4.1,3,5.5c0.8,1.4,1.6,2.7,2.8,5.6c1.3,2.9,2.1,4.2,2.9,5.6c0.7,1.4,1.5,2.8,2.6,5.7c1.2,2.9,1.3,4.5,1.4,6.2 c0.1,1.6,0.2,3.2,1.2,6.2c1.8,6,2.3,5.8,3.9,11.9c1.3,6.1,1.5,6.1,2.6,12.2c1.1,6.1,2,6,2.7,12.3c0.4,3.1,0.7,4.7,0.9,6.2 c0.3,1.6,0.5,3.1,0.8,6.3c0.3,6.3-1.6,6.4-1.5,12.6c-0.2,6.2,0.6,6.3,0.1,12.5c-0.5,6.2,0.4,6.3-0.4,12.6 c-0.7,6.2-1.6,6.1-2.6,12.3c-1.2,6.2-1,6.2-2.4,12.3c-1.8,6-2.4,5.8-4.4,11.8c-2,5.9-0.4,6.5-2.8,12.3c-2.3,5.9-2.4,5.8-4.9,11.6 c-2.7,5.7-4.3,4.9-7.2,10.4c-1.6,2.7-2.1,4.2-2.6,5.7c-0.5,1.5-1.1,3-2.8,5.7c-3.4,5.3-3,5.6-6.7,10.7c-3.6,5.1-4.9,4.1-8.8,9.1 c-4.1,4.7-3.7,5.1-8,9.7c-4.3,4.5-3.8,5.1-8.3,9.4c-4.5,4.4-4.9,4-9.6,8.1c-4.9,4-5.4,3.3-10.4,7c-5.1,3.6-5.1,3.6-10.4,7 c-5.2,3.4-5,3.9-10.4,7c-5.4,3.1-5.4,3.3-10.9,6.2c-0.1,0-0.2,0.1-0.3,0.2c-1.6,0.5-3.1,0.9-6,2.2c-5.7,2.6-6,1.9-11.8,4.2 c-5.9,2-5.3,3.8-11.4,5.6c-6.1,1.7-6.1,1.7-12.2,3c-6.1,1.5-6.5-0.2-12.6,0.9c-6.2,1.1-6.1,1.4-12.3,2.3 c-6.2,0.5-6.2,1.6-12.5,1.9c-6.3,0.1-6.3,0.3-12.6,0.1c-3.1-0.1-4.7-0.2-6.3-0.4c-1.6-0.2-3.1-0.5-6.3-0.7 c-6.3-0.4-6.3-0.5-12.5-1.2c-6.2-1-6.1-1.5-12.3-2.6c-3.1-0.7-4.6-1.2-6.1-1.6c-1.5-0.4-3-0.9-6-1.8c-6-1.7-6.1-1.4-12-3.5 c-6-2-5.9-2.1-11.8-4.3c-5.8-2.5-5.7-2.6-11.4-5.3c-5.6-2.9-5.6-2.9-11-6.1c-5.4-3.1-6-2.2-11.3-5.6c-5.3-3.4-5-3.9-10.1-7.5 c-4.9-3.9-5.1-3.7-9.9-7.8c-4.8-4.1-4.1-4.9-8.6-9.2c-4.6-4.3-4.8-4.1-9.2-8.6c-4.2-4.7-3.8-5-7.8-9.8c-3.8-4.9-4.2-4.7-7.8-9.8 c-3.7-5.1-3.6-5.1-7-10.4c-3.3-5.3-3.5-5.2-6.6-10.7c-2.8-5.6-3.6-5.2-6.2-11c-2.6-5.7-1.2-6.4-3.4-12.2c-1.2-2.9-1.8-4.3-2.4-5.8 c-0.6-1.4-1.2-2.9-2.2-5.8c-1.8-6-1.8-6-3.4-12.1c-0.7-3.1-1.3-4.5-1.8-6c-0.6-1.5-1.1-3-1.7-6.1c-0.6-3.1-1-4.6-1.4-6.1 c-0.3-1.5-0.7-3.1-1.1-6.2c-0.4-3.1-0.1-4.7,0.2-6.4c0.3-1.6,0.7-3.2,0.4-6.3c-0.3-6.2-0.8-6.2-0.9-12.5c0.2-6.3-0.6-6.3-0.4-12.6 c0.5-6.3,1.3-6.2,1.9-12.4c0.3-3.1,0.6-4.7,0.7-6.2c0.2-1.6,0.4-3.1,0.9-6.2c0.5-3.1,1-4.6,1.7-6.1c0.6-1.5,1.2-2.9,1.9-6 c1.4-6.1,0.1-6.5,2-12.5c0.9-3,1.4-4.5,1.9-6c0.6-1.5,1.1-2.9,2.3-5.9c2.4-5.9,3.8-5.2,6.5-10.8c2.8-5.6,1.5-6.3,4.6-11.7 c1.5-2.7,2.2-4.2,2.9-5.6c0.7-1.4,1.3-2.9,3.1-5.5c1.7-2.6,2.9-3.8,4-4.9c1.2-1.1,2.2-2.3,4.2-4.7c3.8-5,3.3-5.3,7.3-10.2 c4.1-4.7,3.5-5.3,7.7-10c4.4-4.5,4.6-4.3,9.1-8.7c4.7-4.2,5.3-3.5,10-7.7c4.9-3.9,5-3.8,9.9-7.6c5.1-3.7,4.8-4.1,10-7.6 c5.3-3.4,5.2-3.6,10.5-6.8c1.5-0.9,0.8-4.8,0.8-4.8C141,58.1,139.2,57.6,137.7,58.5z" fill="#231815"/></g><g id="change2_4"><path d="M128,29.2c-6.6,3.6-6.4,3.9-12.8,7.8s-6.4,3.9-12.6,8.1c-3.1,2.2-4.6,3.2-6.1,4.3s-3.1,2.1-6,4.4 c-5.7,4.9-6.7,3.7-12.2,8.9c-5.6,5.1-5.6,5-10.9,10.4c-2.7,2.7-3.8,4.2-4.9,5.7c-1.1,1.5-2.3,3-4.8,5.8c-2.4,2.9-3.6,4.3-4.9,5.7 c-1.3,1.4-2.5,2.8-4.7,5.9c-4.5,6-3.8,6.5-8,12.8c-2.1,3.1-2.8,4.9-3.6,6.6c-0.7,1.7-1.5,3.5-3.4,6.7c-1.8,3.3-3.1,4.7-4.5,6.1 c-1.4,1.4-2.7,2.8-4.3,6.2c-3.3,6.8-1.2,7.8-4.1,14.6c-1.5,3.4-2.2,5.2-2.9,6.9s-1.5,3.4-2.8,7c-1.1,3.6-2.3,5.2-3.4,6.8 c-1.2,1.6-2.3,3.2-3.3,6.9c-2,7.3-0.8,7.6-2.5,14.9c-0.9,3.7-1,5.6-1.3,7.4c-0.2,1.9-0.5,3.7-1.1,7.4c-0.4,3.7-0.7,5.6-0.9,7.5 c-0.2,1.9-0.4,3.7-0.7,7.5c-0.6,7.5-1,7.5-1.2,15c-0.2,3.8,0,5.6,0,7.5c0,1.9,0.1,3.8,0.2,7.5c0.2,3.8,0.6,5.6,1,7.5 c0.4,1.9,0.7,3.7,1.2,7.4c0.4,3.7,0.3,5.6,0.3,7.5s0,3.8,0.6,7.5c0.6,3.7,0.9,5.6,1.3,7.4c0.3,1.9,0.7,3.7,1.4,7.4 c1.9,7.3,2.5,7.2,4.6,14.3c2.3,7.2,1.9,7.3,4.5,14.3c2.6,7.1,2.5,7.1,5.4,14.1c3,6.9,4.6,6.2,7.8,12.9c3.6,6.5,2.9,7,6.7,13.4 c4,6.3,4.4,6.1,8.8,12.2c4.2,6.2,4.5,6,9.1,11.9c2.2,3,3.3,4.5,4.4,6.1c1.1,1.6,2.1,3.1,4.6,6c5.1,5.5,4.5,6.1,9.8,11.4 c5.5,5.2,6.2,4.4,11.9,9.2c5.6,5,5.9,4.6,11.7,9.3c2.9,2.4,4.2,3.7,5.4,5.3c1.2,1.5,2.5,3,5.6,5.2c3.2,2,4.9,2.8,6.7,3.6 c1.7,0.8,3.5,1.5,6.7,3.4c3.3,1.9,4.7,3.2,6.1,4.5c1.5,1.2,3,2.5,6.3,4.2c3.3,1.8,5.3,2.1,7.2,2.5c1.9,0.4,3.8,0.8,7.2,2.4 c3.5,1.4,5.1,2.4,6.7,3.4c1.6,1,3.3,2,6.8,3.2c7.1,2.5,7.1,2.7,14.3,4.8c7.2,2.2,7.3,1.8,14.7,3.6c3.7,0.8,5.6,1,7.4,1.2 c1.9,0.2,3.7,0.5,7.5,1.1c7.5,1,7.4,1.3,14.9,1.9c7.5,0.7,7.5,0.5,15,0.8c7.5,0.2,7.5-1.1,15-1.1c3.7-0.2,5.6,0,7.5,0.2 c1.9,0.2,3.8,0.4,7.5,0c7.5-0.8,7.6-0.1,15-1.3c7.5-1.1,7.3-2.3,14.6-3.7c7.3-1.7,7.3-2,14.5-4c3.6-1.1,5.3-1.9,7-2.7 c1.7-0.8,3.5-1.5,6.9-2.8c7-2.6,7.2-2.3,14-5.3c1.9-0.8,3.9-1.3,5.9-1.9c1.9-0.6,3.9-1.3,5.7-2.3c1.6-0.9,3-2.1,4.4-3.2 c1.4-1.2,2.7-2.4,4.4-3.3c3.3-1.8,4.9-2.7,6.6-3.6c1.6-1,3.2-1.9,6.4-3.9c1.6-1,2.8-1.7,3.8-2.3c1-0.6,1.8-1.1,2.6-1.6 c1.6-1,3.2-2,6.3-4.1c6-4.5,6.8-3.5,12.7-8.2c2.9-2.4,4.3-3.6,5.8-4.8c1.5-1.2,2.9-2.4,5.6-5c2.7-2.6,4-4,5.3-5.4 c1.2-1.5,2.4-2.9,5-5.6c2.6-2.7,3.9-4.1,5.2-5.4c1.3-1.4,2.6-2.7,5.1-5.6c2.4-2.9,3.3-4.6,4.4-6.2c1-1.6,2.1-3.1,4.2-6.2 c4.3-6.1,3.6-6.6,7.6-12.9c4.1-6.3,5.7-5.3,9.5-11.8c1.9-3.3,2.1-5.3,2.5-7.2c0.3-1.9,0.7-3.8,2.3-7.2c3-6.8,3.6-6.6,6.3-13.5 c2.8-6.9,5-6.1,7.4-13.3c1.3-3.6,1.4-5.5,1.7-7.4c0.2-1.9,0.5-3.8,1.5-7.4c0.9-3.7,1.2-5.5,1.6-7.3c0.4-1.8,0.8-3.7,1.4-7.4 c0.7-3.7,1-5.5,1.4-7.4c0.3-1.9,0.5-3.7,1-7.4c0.6-3.7,0.8-5.6,1.1-7.4c0.3-1.9,0.6-3.7,0.9-7.5c0.3-3.7,0.3-5.6,0.3-7.5 c0-1.9,0.2-3.8,0.2-7.5c-0.1-7.5-1-7.5-1.4-15c-0.4-7.5,0.7-7.6-0.1-15c-0.9-7.5-0.8-7.5-1.9-14.9c-0.8-3.7-1.3-5.5-1.9-7.3 s-1-3.6-2-7.2c-1.9-7.3-1.5-7.4-3.8-14.5c-2.2-7.2-2.1-7.2-4.7-14.3c-2.7-7-4.2-6.4-7.1-13.3c-3.3-6.7-2.5-7.1-6-13.7 c-3.7-6.5-4.1-6.3-8.1-12.6c-2-3.2-3-4.7-4.1-6.3c-1.1-1.5-2.2-3-4.4-6.1c-2.1-3.1-3.1-4.7-4.1-6.3c-1-1.6-2-3.2-4.2-6.2 c-4.8-5.7-4.2-6.3-9.2-11.9c-5.2-5.4-6-4.7-11.4-9.8c-5.4-5.2-5.6-4.9-11.2-9.9c-2.8-2.5-4-4-5.1-5.5c-1.2-1.6-2.3-3.1-5.3-5.4 c-3.1-2.2-4.8-3-6.5-3.9c-1.7-0.8-3.4-1.7-6.5-3.7c-6.3-4.1-5.4-5.5-12-9.3c-3.3-1.9-5.1-2.4-7-2.9s-3.7-1-7.1-2.7s-5-2.6-6.5-3.7 c-1.6-1-3.1-2.2-6.6-3.6c-7-2.8-6.9-3.1-14-5.5c-7.1-2.5-7.2-2.2-14.4-4.3c-3.6-1.1-5.5-1.3-7.4-1.6c-1.9-0.3-3.7-0.7-7.4-1.5 c-3.7-0.7-5.5-1.1-7.4-1.4c-1.8-0.4-3.7-0.7-7.4-1.2c-3.7-0.5-5.6-0.8-7.5-1s-3.7-0.3-7.5-0.6c-3.7-0.4-5.6-0.1-7.5,0 c-1.9,0.2-3.8,0.4-7.5,0.2c-3.7,0-5.6-0.3-7.5-0.6c-1.9-0.3-3.8-0.7-7.5-0.4c-7.5,0.4-7.6-0.3-15.1,0.5c-7.5,0.7-7.4,1.8-14.8,3 c-7.4,1.3-7.3,1.7-14.7,3.2c-3.6,0.9-5.4,1.6-7.2,2.3c-1.8,0.7-3.5,1.3-7.1,2.5c-7.1,2.2-7.3,1.9-14.3,4.5c-7,2.5-7.3,2-14.2,4.9 c-1.9,0.8-1.8,3.7-0.5,6.5c0,0,3.1,4.1,4.9,3.3c6.6-2.8,7-1.8,13.8-4.2c6.7-2.5,7-1.7,13.8-3.8c3.4-1.1,4.9-2.1,6.5-3.1 c1.6-1,3.2-2.1,6.6-3c7-1.5,7.1-1.3,14.1-2.6c7.1-1.1,7.4,0.9,14.5,0.3c7.1-0.8,7-1.5,14.1-1.9c7.1-0.3,7.1-1.6,14.3-1.7 c3.6,0.2,5.4,0.3,7.2,0.3c1.8,0.1,3.6,0.1,7.2,0.5c3.6,0.3,5.3,0.7,7.1,1c1.8,0.4,3.5,0.8,7.1,1.3c3.6,0.5,5.3,0.7,7.1,1 c1.8,0.3,3.5,0.6,7.1,1.2c7,1.6,6.9,2.2,13.8,4c6.9,2,6.7,2.4,13.5,4.8c6.8,2.3,6.8,2.1,13.5,4.8c6.6,2.8,6.6,2.7,13.1,5.7 c3.2,1.7,4.7,2.5,6.3,3.3c1.6,0.8,3.1,1.7,6.2,3.5c6.2,3.5,6,3.8,12,7.7c3,1.9,4.7,2.7,6.4,3.4c1.7,0.7,3.4,1.4,6.3,3.5 c5.6,4.5,5.4,4.7,10.9,9.4c5.4,4.7,5.6,4.5,10.7,9.5c5.2,4.9,3.9,6.2,8.9,11.3c4.7,5.3,5.3,4.9,9.9,10.3c2.2,2.8,3.1,4.4,4.1,5.9 c1,1.5,1.9,3,3.9,6c2,2.9,3.1,4.3,4.2,5.7c1,1.4,2.1,2.9,3.9,5.9c3.8,6,3.6,6.1,7.2,12.3c3.3,6.3,3.6,6.2,6.7,12.6 c2.8,6.6,3.9,6.1,6.4,12.9c2.5,6.8,0.4,7.5,2.5,14.3c2.2,6.8,2.8,6.6,4.6,13.5s1.5,7,3,13.9c1,7,2.5,6.8,3.3,14 c0.7,7.1,1.7,7.1,2,14.2c0.4,7.2-2.4,7.3-2.3,14.4c-0.1,7.1,0.6,7.1,0.3,14.3c-0.3,3.6-0.2,5.4-0.1,7.2c0.2,1.8,0.3,3.6-0.3,7.2 c-0.5,3.6-1,5.3-1.5,7c-0.6,1.7-1.2,3.4-1.8,6.9c-0.6,3.5-1,5.3-1.3,7c-0.3,1.8-0.6,3.5-1.4,7c-2,6.9-3,6.6-5.3,13.3 c-2.3,6.7-0.1,7.5-2.8,14.2c-2.6,6.7-2.7,6.7-5.6,13.2c-3.2,6.5-5.4,5.3-8.8,11.6c-3.6,6.1-2,7.1-5.9,13.1 c-3.8,6.1-3.4,6.4-7.5,12.3c-4.3,5.8-6,4.5-10.4,10.1c-2.3,2.7-3.4,4.1-4.5,5.6c-1.1,1.5-2.1,2.9-4.6,5.5c-2.5,2.6-3.5,4-4.6,5.5 c-1.1,1.4-2.2,2.8-4.8,5.3c-2.6,2.5-4,3.6-5.5,4.7c-1.4,1.1-2.9,2.1-5.6,4.5c-5.6,4.5-6.4,3.4-12.1,7.7c-2.9,2-4.4,3-5.9,4 c-0.7,0.5-1.5,1-2.4,1.6s-2.1,1.3-3.6,2.2c-3,1.9-4.4,3-5.8,4.1c-1.4,1.1-2.9,2.1-6,3.9c-6.2,3.5-6.1,3.8-12.5,7 c-0.1,0.1-0.2,0.1-0.3,0.2c-1.8,0.5-3.6,0.9-6.9,2.3c-6.6,2.9-6.9,2-13.6,4.5c-3.3,1.3-4.8,2.4-6.4,3.5c-1.5,1.1-3.1,2.3-6.5,3.3 c-7,1.9-7,1.7-14,3.3c-7.1,1.4-7.4-0.5-14.5,0.5c-7,1.1-6.9,1.9-14.1,2.6c-3.6,0.4-5.3,0.8-7.1,1.3c-1.8,0.5-3.5,0.9-7.1,1.1 c-7.2,0-7.2,0.1-14.4-0.1c-7.2-0.3-7.2-0.9-14.3-1.6c-7.2-0.6-7.2-0.6-14.3-1.6c-7.1-1.2-7-1.8-14-3.3c-6.9-1.7-6.9-2-13.7-4.1 c-6.9-2-6.9-1.7-13.7-4.1c-6.7-2.4-6.7-2.4-13.4-5c-3.2-1.5-4.9-2.3-6.5-3c-1.6-0.8-3.2-1.5-6.4-3.2c-3.2-1.6-4.7-2.5-6.3-3.4 c-1.5-0.9-3-1.9-6.1-3.7c-3.1-1.7-4.8-2.4-6.5-3c-1.7-0.6-3.4-1.3-6.5-3.2c-5.9-4.2-5.6-4.5-11.4-8.8c-5.6-4.5-5.8-4.2-11.2-9 c-5.5-4.7-4.3-5.9-9.5-10.8c-5.1-5-5.5-4.6-10.4-9.8c-2.3-2.7-3.3-4.2-4.4-5.7c-1-1.5-2.1-2.9-4.2-5.8c-4.4-5.6-4.7-5.4-8.8-11.3 c-4.1-5.8-4-5.9-7.8-12c-3.7-6.1-3.9-6-7.4-12.3c-3.1-6.5-4.2-5.9-7.1-12.5c-2.8-6.6-0.8-7.5-3.2-14.1c-2.5-6.7-3.1-6.5-5.3-13.3 c-2.1-6.8-1.9-6.9-3.7-13.8c-0.7-3.5-1.4-5.2-2.1-6.9c-0.7-1.7-1.4-3.4-1.9-6.9c-0.6-3.5-1.1-5.3-1.5-7c-0.4-1.8-0.8-3.5-1.2-7.1 c-0.4-3.6,0.1-5.4,0.7-7.3c0.5-1.8,1.1-3.7,0.8-7.2c-0.1-3.6-0.3-5.3-0.6-7.1c-0.2-1.8-0.6-3.6-0.4-7.1c0.2-7.1-1-7.2-0.4-14.4 c0.2-3.6,0.7-5.3,1.2-7.1c0.5-1.8,0.9-3.5,1.4-7s0.8-5.3,1-7.1c0.2-1.8,0.3-3.6,1.1-7.1c1.5-7,2.7-6.7,4.6-13.6 c0.9-3.5,0.9-5.3,0.9-7.2s0-3.8,1.1-7.2c1.2-3.4,1.8-5.1,2.4-6.8s1.1-3.4,2.6-6.7c2.8-6.6,5-5.7,8.2-12.1c1.5-3.2,2-5,2.5-6.8 c0.5-1.8,1-3.5,2.7-6.7c1.8-3.1,2.6-4.7,3.4-6.3c0.8-1.6,1.5-3.3,3.6-6.3c4-6,5.6-4.9,9.9-10.6c2.1-2.9,3.1-4.4,4.1-5.8 c1-1.5,2-3,4.3-5.7c2.3-2.7,3.4-4.2,4.4-5.7c1-1.5,2-3.1,4.5-5.6c5.1-5.1,5.3-4.8,10.6-9.7c5.2-4.9,6.3-3.7,11.7-8.4 c5.6-4.4,5.7-4.2,11.5-8.4c5.9-4,5.3-4.9,11.5-8.6c6.1-3.8,5.8-4.2,12.1-7.6c1.7-0.9,0.5-6.3,0.5-6.3 C132,29.2,129.8,28.2,128,29.2z" fill="#231815"/></g></g><g id="change3_1"><path d="M86,296.1c0.7-22.6,5.4-45,13.7-66c2.7-6.7,5.7-13.5,5.5-20.7c-0.1-3.3-0.9-6.5-1.7-9.7 c-9.2-36.2-20.2-73.6-13.9-110.4c0.5-2.9,1.2-5.9,2.9-8.4c5.8-8.2,18.5-5,27.4-0.4c23.2,12.2,43.8,29,60.5,49.3 c37.3-5.5,75.5-4.5,112.5,2.9c2.9,0.6,5.9,1.2,8.7,0.2c1.8-0.7,3.3-2,4.7-3.3c21.5-19.6,39.5-45.4,67.2-54.1c4-1.3,8.8-2,12.2,0.4 c3.2,2.2,4.2,6.4,4.9,10.2c6.3,34.4,2.8,70.5-10,103c-2.3,5.9-5,11.9-4.9,18.3c0.1,4.2,1.4,8.2,2.7,12.2 C388,247,401.1,274,401,302.9c0,3-0.2,6.1-1.5,8.8c-1.5,3.1-4.4,5.3-7.3,7.2c-11.7,7.8-25.2,12.2-38.6,16.6 c-10.4,3.4-21,6.8-32,7.2c-11,0.3-22.5-2.8-30-10.8c-4.1-4.4-6.7-9.9-10.9-14.1c-8.8-8.9-22.9-10.5-35.1-8.1 c-12.3,2.5-23.5,8.4-35.3,12.8c-24.6,9.3-51.7,11.7-77.6,7.1c-19.8-3.6-41.5-14.2-45.5-33.9" fill="#f08419"/></g><g fill="#231815" id="change2_5"><path d="M209,265.2c-0.4-0.9-0.3-1-0.7-1.9c-0.5-0.8,1-1.9,0.4-2.7c-0.6-0.8-1.2-0.4-1.8-1.1 c-0.6-0.7-1.6,0.2-2.2-0.4c-0.6-0.6-0.6-0.6-1.2-1.2c-0.6-0.6-0.3-1-0.9-1.5c-0.7-0.5-0.8-0.4-1.4-0.9c-0.7-0.5-0.3-0.9-1-1.4 c-0.6-0.5-0.4-0.8-1-1.3c-0.6-0.4-0.8-0.2-1.4-0.7c-0.6-0.4-0.7-0.3-1.3-0.8c-0.6-0.4-0.6-0.5-1.2-1c-0.6-0.4-0.5-0.7-1.1-1.1 c-0.6-0.4-1.4,0.7-2,0.2c-0.6-0.4-0.4-0.8-1-1.2c-0.6-0.4-0.7-0.3-1.4-0.7c-0.6-0.4,0.1-1.5-0.5-2c-0.6-0.4-1,0.1-1.6-0.3 c-0.7-0.4-0.3-1-1-1.4c-0.7-0.4-0.8-0.1-1.5-0.6c-0.7-0.4-0.7-0.4-1.4-0.8c-0.7-0.4-0.8-0.1-1.5-0.5c-0.7-0.4-1.1,0.3-1.8-0.1 c-0.7-0.4,0.3-2.1-0.4-2.5c-0.7-0.4-1,0.1-1.7-0.3c-0.7-0.4-0.7-0.4-1.4-0.8c-0.7-0.4-1.2,0.6-1.9,0.2c-0.7-0.4-1,0.2-1.7-0.1 c-0.7-0.4,0.3-2.4-0.4-2.7c-0.7-0.4-1,0.3-1.8-0.1c-0.7-0.3-1.1,0.6-1.9,0.2c-0.7-0.3-0.4-1.1-1.1-1.4c-0.7-0.3-0.9,0.1-1.6-0.3 c-0.7-0.3-0.4-1.3-1.1-1.6c-0.8-0.3-1.4,1.5-2.2,1.3c-0.8-0.3-0.8-0.2-1.5-0.4c-0.8-0.2-0.1-2.3-0.9-2.5c-0.8-0.2-1.2,1.1-2,0.9 c-0.8-0.2-0.9,0.3-1.7,0.1c-1.2-0.3-1-2-2.4-2.2c-1.4-0.1-1.4,0.4-2.7,0.6c-1.3,0.3-1,1.1-2.2,1.6c-1.1,0.6-1.3,0.2-2.3,1.1 c-0.9,0.9-1.7,0.1-2.5,1.3c-0.7,1.2-0.9,1.1-1.4,2.5c-0.5,1.4,0.2,1.8,0,2.7c-0.2,0.9,0.3,1,0.1,1.8c0,0,0,0,0.1,0.1 c-0.3,0.2-0.6,0.3-0.7,0.7c-0.1,0.8-0.8,0.7-0.9,1.6c-0.1,0.9,2,1.1,1.9,1.9c-0.1,0.8-0.3,0.8-0.3,1.7c0,0.9-1.9,0.9-1.9,1.9 c0,1,0.7,1,0.8,2c0.2,1,1.4,0.8,1.6,1.8c0.2,1,0.2,1,0.6,2c0.4,1-0.1,1.2,0.5,2.2c0.7,1,0.8,0.9,1.5,1.7c0.8,0.8,0.4,1.2,1.3,2 c0.9,0.7,0.6,1,1.5,1.6c0.9,0.5,1,0.2,1.7,0.6c0.7,0.4,0.8,0.2,1.5,0.6c0.7,0.3,0.6,0.4,1.3,0.8c0.7,0.3,0.6,0.6,1.3,0.9 c0.7,0.3,1.3-0.9,2-0.5c0.7,0.3,0.5,0.7,1.2,1.1c0.7,0.3,0.8,0.2,1.5,0.5c0.7,0.3,0.1,1.5,0.8,1.8c0.7,0.3,1-0.3,1.7,0.1 c0.7,0.3,0.4,0.9,1.2,1.2c0.7,0.3,0.8,0,1.6,0.3c0.7,0.3,0.7,0.3,1.5,0.6c0.7,0.3,0.9,0,1.6,0.3c0.7,0.3,1-0.5,1.8-0.2 c0.7,0.3,0,2.1,0.7,2.4c0.7,0.3,1-0.3,1.7,0c0.7,0.3,0.7,0.3,1.5,0.6c0.7,0.3,1.1-0.7,1.8-0.5c0.7,0.3,1-0.4,1.7-0.1 c0.7,0.3,0,2.4,0.8,2.6c0.8,0.2,1-0.4,1.7-0.2c0.8,0.2,1-0.7,1.8-0.5c0.8,0.2,0.5,1,1.3,1.2c0.8,0.2,0.9-0.2,1.6,0 c0.8,0.2,0.5,1.2,1.3,1.4c0.8,0.2,1.2-1.7,2-1.6c0.8,0.1,0.8,0,1.6,0.2c0.8,0.1,0.4,2.2,1.2,2.3c0.8,0.1,1-1.3,1.8-1.2 c0.8,0.1,0.9-0.5,1.7-0.4c0.8,0.1,0.6,1.8,1.4,1.9c0.8,0.1,0.9-0.5,1.7-0.4c0.8,0.1,0.9-0.8,1.7-0.8c0.8,0,0.8,0.4,1.6,0.4 c0.8,0,0.8,1.1,1.7,1.1c0.8,0,0.8,0.1,1.7,0.1c0.8,0,0.8-0.8,1.6-0.8c0,0,0.1,0,0.1,0l3.4-0.3l0.8-3.2c0.2-0.7-0.3-0.8,0-1.5 c0.1-0.2-3.4-1.4-4.1-1.6l0,0c0,0,0,0,0,0c0,0,0.1,0,0.1,0c0,0,4.2,0.3,4.2,0c0.1-1.1,1.2-1.1,1.1-2.4c-0.2-1.2,0.5-1.3,0.2-2.6 C211.4,265.4,209.4,266.1,209,265.2z" fill="inherit"/><path d="M346.9,247.2c0-0.9-0.3-0.9-0.3-1.8c-0.1-0.9-0.8-0.8-0.9-1.6c-0.1-0.8,0.1-0.8,0-1.7c-0.1-0.4,0.9-1,0.6-1.5 c-0.3-0.4-1.6-0.5-1.7-1c-0.2-0.8-0.1-1-0.5-2.2c-0.5-1.1-0.2-1.3-0.8-2.4c-0.7-1,0.1-1.8-0.9-2.7c-1-0.9-1-1-2.2-1.6 c-1.3-0.6-1.4-0.1-2.7-0.4c-1.3-0.2-1.3-0.5-2.7-0.4c-1.4,0.2-1.3,0.9-2.6,1.2c-0.8,0.2-0.6,1-1.4,1.3c-0.8,0.2-1.3-1.5-2.1-1.2 c-0.8,0.3-0.2,2.1-0.9,2.4c-0.8,0.3-0.9-0.1-1.6,0.2c-0.7,0.3-1.4-1.6-2.2-1.3c-0.8,0.3-0.4,1.2-1.2,1.5c-0.7,0.3-0.6,0.5-1.4,0.9 c-0.7,0.3-0.7,0.4-1.4,0.7c-0.7,0.3-0.9,0-1.6,0.3c-0.7,0.3-0.7,0.4-1.4,0.7c-0.7,0.4-0.3,1.2-1,1.5c-0.7,0.4-1.2-0.5-1.9-0.2 c-0.7,0.4-0.8,0.2-1.5,0.6c-0.7,0.4-0.4,0.9-1.1,1.3c-0.7,0.4-0.8,0.2-1.5,0.6c-0.7,0.4-0.8,0.2-1.5,0.6c-0.7,0.4,0,1.5-0.7,1.9 c-0.7,0.4-1-0.1-1.6,0.3c-0.7,0.4-0.3,0.9-1,1.4c-0.7,0.4-0.5,0.6-1.2,1c-0.6,0.4-1-0.2-1.7,0.3c-0.6,0.4-1-0.1-1.6,0.3 c-0.6,0.4,0,1.3-0.7,1.8c-0.6,0.4-0.5,0.6-1.1,1.1c-0.6,0.4-1.6-1-2.2-0.5c-0.6,0.4,0,1.3-0.7,1.7c-0.6,0.4-1.5-0.7-2.1-0.3 c-0.6,0.4,0.2,1.6-0.4,2c-0.6,0.4-1.2-0.4-1.9,0c-0.6,0.4-0.7,0.3-1.3,0.8c-0.6,0.4-0.5,0.6-1.2,1c-0.7,0.5-0.4,0.8-1.1,1.3 c-0.7,0.5-0.7,0.5-1.4,1c-0.7,0.6-0.6,0.6-1.2,1.2c-0.7,0.6,0,1.3-0.6,1.9c-0.6,0.6-1.4-0.1-2,0.6c-0.6,0.7-1,0.3-1.7,1.2 c-0.6,0.8,0,1.3-0.5,2.1c-0.5,0.9-0.3,1-0.8,2c-0.4,1,0.3,1.3,0,2.3c-0.3,1-0.5,1-0.6,2.1c-0.1,1.1-0.8,1.1-0.7,2.3 c0,0.3,2.2,0.3,4.8,0c0,0,0,0,0,0l0,0c-0.1,0-0.2,0-0.2,0c-2.5,0.8-4,1.4-3.9,1.6c0.2,0.7,0.5,0.6,0.8,1.3l0.9,2.8l2.6,0.1 c0,0,0,0,0.1,0c0.8,0,0.8,0.2,1.6,0.2c0.8,0,0.8,0.3,1.6,0.4c0.8,0,0.8,1.1,1.6,1.1c0.8,0,0.8,0.1,1.7,0.1c0.8,0,0.8-0.5,1.6-0.5 c0.8-0.1,0.8,0.2,1.7,0.2c0.8-0.1,0.8-0.7,1.6-0.9c0.8-0.1,0.7-0.9,1.5-1c0.8-0.1,1.1,1.7,1.9,1.5c0.8-0.1,0.5-2.1,1.3-2.2 c0.8-0.1,0.8,0.2,1.6,0c0.8-0.2,1.2,1.8,2,1.6c0.8-0.2,0.6-1.1,1.4-1.3c0.8-0.2,0.7-0.4,1.5-0.7c0.8-0.2,0.8-0.3,1.5-0.5 c0.8-0.2,0.9,0.2,1.6-0.1c0.8-0.3,0.8-0.3,1.5-0.5c0.8-0.2,0.5-1.1,1.2-1.3c0.7-0.3,1.1,0.7,1.8,0.4c0.7-0.3,0.8,0,1.6-0.3 c0.7-0.3,0.5-0.8,1.3-1.1c0.7-0.3,0.8,0,1.6-0.3c0.7-0.3,0.8-0.1,1.5-0.4c0.7-0.3,0.3-1.4,1-1.7c0.7-0.3,0.9,0.2,1.7-0.1 c0.7-0.3,0.5-0.9,1.2-1.2c0.7-0.3,0.6-0.5,1.3-0.8c0.7-0.3,1,0.3,1.7,0c0.7-0.3,1,0.3,1.7-0.1s0.2-1.3,0.9-1.7 c0.7-0.3,0.6-0.5,1.3-0.9c0.7-0.3,1.4,1.2,2.1,0.9c0.7-0.3,0.2-1.2,0.9-1.6c0.7-0.3,1.3,1,2,0.6c0.7-0.3,0.1-1.6,0.7-1.9 c0.7-0.3,1.1,0.6,1.9,0.2c0.8-0.4,0.8-0.3,1.7-0.8c0.9-0.6,0.8-0.7,1.8-1.4c0.9-0.8,0.7-1.1,1.5-2c0.8-0.9,0.9-0.9,1.5-1.9 c0.6-1.1,0.5-1.1,1-2.2c0.4-1.1-0.5-1.4-0.2-2.4c0.2-1,1.2-0.8,1.4-1.9c0.1-1,0.7-1,0.7-2C347.7,248.1,346.9,248.1,346.9,247.2z" fill="inherit"/></g><g id="change4_3"><path d="M190.2,214.8c0.7,2.1-0.5,4.5-2.2,5.8c-1.8,1.3-4,1.9-6.2,2.3c-6.4,1.3-12.9,1.8-19.4,1.7 c-2.7-0.1-5.6-0.4-7.4-2.3c-1-1.1-1.5-2.7-1.7-4.2c-1.5-9.3,5.3-19.1,14.5-21s19.3,4.4,21.7,13.6L190.2,214.8z" fill="#ffffff"/></g><g id="change4_4"><path d="M291.3,214.8c-0.7,2.1,0.5,4.5,2.2,5.8s4,1.9,6.2,2.3c6.4,1.3,12.9,1.8,19.4,1.7c2.7-0.1,5.6-0.4,7.4-2.3 c1-1.1,1.5-2.7,1.7-4.2c1.5-9.3-5.3-19.1-14.5-21c-9.2-1.9-19.3,4.4-21.7,13.6L291.3,214.8z" fill="#ffffff"/></g><g id="change4_2"><path d="M86.8,299c31.5-6,65.7,5.6,87.1,29.6c6.5-19.4,20.9-36.2,39.4-45c18.5-8.7,41-9,59.4,0 c18.4,9,32.2,27.2,35.1,47.5c20.7-25.3,57-33,89.4-28.6c-0.2,22.1-14.2,41.8-29.9,57.4c-35.4,35.2-84.4,58.7-134.3,56.1 c-47.5-2.4-91.7-28.1-123.9-63c-4.6-5.1-9.1-10.3-12.6-16.3c-6.5-11-9.4-24-8.2-36.7" fill="#ffffff"/></g><g fill="#231815" id="change2_1"><path d="M285.9,351.5c-1,0-2,0.9-2.9,0.9c-0.9,0,0.1-1-0.9-1c-1,0-0.8-0.2-1.8-0.2c-1,0-1.4,0.6-2.4,0.6 c-1,0-0.8-0.3-1.8-0.3c-1,0-0.9-0.2-1.9-0.3c-1,0-1.2,1.2-2,1.2c-0.5,0-0.5-0.6-1.1-0.6c-0.5,0-0.5,0.6-1.1,0.6 c-0.5,0-0.5,0.2-1.1,0.2c-0.5,0-0.5-0.7-1.1-0.7c-0.5,0-0.5-0.6-1.1-0.7c-0.5,0-0.5,1.1-1.1,1.1s-0.5,0.2-1.1,0.2 c-0.5,0-0.5-1.7-1.1-1.7c-0.5,0-0.5,1-1.1,1c-0.5,0-0.5-1.4-1.1-1.4c-0.5,0-0.6,1.4-1.1,1.4s-0.5-1.1-1.1-1.1 c-0.5,0-0.5-0.1-1.1-0.1c-0.5,0-0.5,0.1-1.1,0.1c-0.5,0-0.5,0.4-1.1,0.4c-0.5,0-0.5-0.1-1.1-0.1c-0.5,0-0.5,0.1-1.1,0.1 c-0.5,0-0.5,0.9-1.1,0.9c-0.1,0-0.2,0-0.3-0.1c0.1-0.1,0.2-0.2,0.2-0.3c0-0.6-1-0.6-1.1-1.2c0-0.6,1.5-0.6,1.5-1.2 c0-0.6-1.5-0.6-1.5-1.2c0-0.6,1.1-0.6,1.1-1.2c0-0.6,0.1-0.6,0.1-1.2c0-0.6-0.2-0.6-0.2-1.2c0-0.6-0.5-0.6-0.5-1.2 c0-0.6,0.1-0.6,0.1-1.2c0-0.6-0.1-0.6-0.1-1.2c0-0.5-0.6-0.6-0.9-0.9c0.2,0.2,0.5,0.5,0.9,0.4c0.8-0.2,0.8,0,1.6-0.2 c0.8-0.2,0.7-0.6,1.4-0.9c0.8-0.2,0.9,0,1.6-0.3c0.7-0.3,0.5-0.9,1.2-1.2c0.7-0.4,0.3-1,1-1.4c0.7-0.4,1.5,1,2.2,0.6 c0.7-0.5-0.4-1.9,0.2-2.4c0.6-0.5,0.8-0.2,1.4-0.7c0.6-0.5,1.9,0.9,2.5,0.3c0.6-0.6-0.1-1.2,0.5-1.8c0.5-0.6,0.3-0.8,0.8-1.4 c0.5-0.6,0.4-0.7,0.9-1.3c0.4-0.7,0.7-0.5,1.1-1.2c0.4-0.7,0.3-0.7,0.7-1.4c0.4-0.7-0.4-1.1-0.1-1.8c0.3-0.7,1.2-0.4,1.4-1.1 c0.3-0.8,0.4-0.7,0.7-1.5c0.2-0.8-0.3-0.9-0.2-1.7c0.1-0.8,0.4-0.7,0.5-1.5c0.1-0.8,0.3-0.8,0.4-1.6c0-0.8-1.1-0.8-1.1-1.6 c0-0.7,0.5-0.8,0.5-1.5c0-0.7-0.6-0.7-0.7-1.4c-0.1-0.7-0.3-0.7-0.3-1.4c-0.1-0.7,0.6-0.8,0.5-1.4c-0.1-0.7,0.5-0.8,0.4-1.4 c-0.1-0.7-1.1-0.5-1.2-1.2c-0.1-0.7-0.3-0.7-0.5-1.4c-0.2-0.8,1.4-1.2,1.1-2.1c-0.3-0.9-1.2-0.5-1.7-1.6c-0.5-1,0.6-1.7-0.3-2.7 c-0.9-0.9-1.8,0-2.6-0.6c-0.9-0.6-0.4-1.5-1.6-2c-1.1-0.4-1.3-0.6-2.2-0.8c-0.9-0.2-0.9,0-1.6-0.1c-0.7-0.1-0.7,0.3-1.4,0.2 c-0.7-0.1-0.7-0.1-1.3-0.2c-0.7-0.1-0.7,0-1.3-0.1c-0.7-0.1-0.8,0.8-1.4,0.7c-0.7-0.1-0.6-1-1.2-1.1c-0.7-0.1-0.6-0.6-1.3-0.6 c-0.7,0-0.7,0.7-1.4,0.6c-0.7,0-0.7,0.2-1.3,0.1c-0.7,0-0.7,0.7-1.4,0.6c-0.7,0-0.7-0.2-1.3-0.2c-0.4,0-0.7-1-1.1-0.8 c-0.3,0.2-0.6,1.4-1,1.4c-0.7,0-0.7-0.1-1.3-0.1c-0.7,0-0.7-0.3-1.3-0.3c-0.7,0-0.7-1-1.4-1c-0.7,0-0.7-0.1-1.3-0.1 c-0.7,0-0.6,0.5-1.3,0.5c-0.7,0-0.7-0.2-1.4-0.2c-0.7,0-0.6,0.7-1.3,0.8c-0.7,0.1-0.6,0.8-1.3,0.9c-0.7,0.1-0.8-1.5-1.5-1.5 c-0.7,0.1-0.5,1.9-1.1,1.9c-0.7,0.1-0.7-0.2-1.4-0.1c-0.7,0.1-1-1.8-1.8-1.6c-0.9,0.2-0.6,1.1-1.5,1.3c-0.9,0.3-0.8,0.5-1.8,1 c-1,0.5-0.9,0.6-1.8,1.3c-0.8,0.6-1,0.5-1.7,1.2c0,0-0.1,0.1-0.1,0.2c-0.7,0.9-0.6,1-1.1,2c-0.4,1.1,0.4,1.4,0.1,2.3 c-0.2,0.9-1.1,0.7-1.2,1.6c-0.1,0.8-0.3,0.8-0.3,1.5c0,0.7,0.5,0.7,0.5,1.5c0,0.7-0.3,0.7-0.2,1.4c0,0.7-0.2,0.7-0.2,1.5 c0.1,0.7,1.2,0.6,1.3,1.4c0.1,0.7-0.5,0.8-0.4,1.5c0.1,0.7,0.7,0.6,0.8,1.3c0.1,0.7,0.3,0.7,0.5,1.4c0.2,0.7-0.5,0.9-0.3,1.6 c0.2,0.7-0.4,0.9-0.1,1.6c0.3,0.7,1.2,0.4,1.5,1.1c0.3,0.7,0.5,0.6,0.8,1.3c0.3,0.7-1.1,1.4-0.7,2.1c0.4,0.7,1.2,0.2,1.6,0.9 c0.4,0.6-0.7,1.4-0.2,2.1c0.5,0.7,1.5-0.2,2,0.4c0.5,0.6-0.2,1.2,0.4,1.9c0.6,0.6,0.5,0.7,1.2,1.2c0.6,0.5,0.7,0.4,1.4,0.9 c0.7,0.5,0.9,0.1,1.6,0.5c0.7,0.4,0.6,0.5,1.3,0.8c0.7,0.4,0.7,0.3,1.4,0.6c0.7,0.3,1-0.5,1.6-0.2c0.6,0.3,0.2,1.1,0.9,1.4 c0.6,0.3,0.4,0.7,1,1c0.6,0.3,0.9-0.4,1.5-0.2c0.6,0.2,0.7,0.1,1.3,0.3c0.6,0.2,0.9-0.4,1.4-0.1c0.1,0,0.1,0.1,0.2,0.1 c0.1,0.1,0.2,0.2,0.2,0.5c0,0.6,1.3,0.6,1.3,1.2c0,0.6,0,0.6,0,1.2c0,0.6-0.6,0.6-0.6,1.2s0.2,0.6,0.2,1.2c0,0.6-0.6,0.6-0.5,1.2 c0,0.6-0.5,0.6-0.5,1.2c0,0.6,0.3,0.6,0.3,1.2c0,0.6,0.2,0.6,0.2,1.2c0,0.6-0.1,0.6-0.1,1.2c0,0.6-0.3,0.6-0.3,1.2 c0,0.6,1.4,0.6,1.4,1.2c0,0.2-0.1,0.4-0.1,0.5c-0.1,0-0.1,0-0.2,0c-0.5,0-0.5-1.1-1.1-1.1c-0.5,0-0.5-0.2-1.1-0.2 c-0.5,0-0.5,0.5-1.1,0.5c-0.5,0-0.5-0.3-1.1-0.3c-0.5,0-0.5,0.7-1.1,0.7c-0.5,0-0.5,0.8-1.1,0.8c-0.5,0-0.5-1.8-1.1-1.8 c-0.5,0-0.6,1.9-1.1,1.9c-0.5,0-0.5-0.3-1.1-0.3c-0.5,0-0.5-2-1.1-2.1c-0.5,0-0.5,1-1.1,1c-0.5,0-0.5,0.2-1.1,0.2 c-0.5,0-0.5,0.1-1.1,0.1c-0.5,0-0.5-0.4-1.1-0.4c-0.5,0-0.5,0.1-1.1,0.1s-0.5,0.9-1.1,0.9c-0.5,0-0.5-1-1.1-1 c-0.5,0-0.5-0.2-1.1-0.2c-0.5,0-0.5,0.6-1.1,0.6c-0.6,0-0.5-0.3-1.1-0.3c-1,0-1-0.2-2-0.3c-1,0-0.7,1.2-1.5,1.2 c-0.9,0-1.1-0.6-2.1-0.6c-0.9,0-0.6,0.6-1.4,0.6c-0.9,0-0.7,0.2-1.6,0.2c-0.8,0-1.5-0.7-2.5-0.7c-0.9,0-1.6-0.7-2.6-0.7 c-1,0,0.5,1.1-0.4,1.1c0,0,0,0,0,0c0.3,0.8,0.6,1,0.9,1.8c0.3,0.8-2-0.5-1.7,0.4c0.3,1,1.6,1.6,1.9,2.4c0.3,0.9-1.4,0.2-1.1,1.2 c0.3,1,2,1.4,2.3,2.2c0.3,0.9-0.9,0.7-0.5,1.7c0.3,1,0.2,1,0.5,1.9c0.3,1,0.5,0.9,0.8,1.9c0.2,0.7,0.6,0.4,0.8,1 c0.2,0.5,0.1,0.5,0.3,1c0.2,0.5,0.3,0.5,0.4,1c0.2,0.5,1.1,0.2,1.2,0.7c0.2,0.5-0.8,0.8-0.6,1.4c0.2,0.5-0.3,0.7-0.2,1.2 c0.2,0.5,0.9,0.2,1.1,0.8c0.2,0.5,0.4,0.4,0.6,0.9c0.2,0.5,0.9,0.3,1.1,0.8c0.2,0.5,0,0.6,0.1,1.1c0.2,0.5-0.5,0.7-0.3,1.2 c0,0.1,2.2-0.5,4.7-1.4c0,0,4-1.5,3.9-1.6c-0.2-0.5,0.9-0.9,0.7-1.4c-0.2-0.5,0.5-0.7,0.3-1.2c-0.2-0.5-2.2,0.2-2.3-0.3 c-0.2-0.5,0-0.6-0.1-1.1c-0.2-0.5,1.6-1.1,1.4-1.6c-0.2-0.5-0.8-0.3-1-0.8c-0.2-0.5-1.4-0.1-1.6-0.6c-0.2-0.5-0.2-0.5-0.3-1 c-0.2-0.5,0.3-0.7,0.2-1.2c-0.2-0.5-0.3-0.5-0.5-1c-0.2-0.5,0.3-0.8,0.2-1.1c0-0.1,0.4-0.2,0.4-0.2c0,0-0.3,0-0.3-0.1 c0-0.1-0.2-0.1-0.2-0.2c0-0.1,0.1-0.1,0.1-0.1c0-0.1,0.3,0,0.3,0c0,0-0.4-0.2-0.9-0.5c-0.4-0.2-0.9-0.5-0.9-0.6 c-0.1-0.2,0.5,0.2,0.5,0.1c0-0.1-0.2-0.3-0.3-0.4l0,0c0.2,0,1.9,1.3,1.9,1.3c0,0-0.7-0.7-0.6-0.7c0.1,0,0.7,0.6,0.7,0.6 c0,0-0.2-0.3-0.2-0.3c0.1,0,0,0,0.1,0c0.1,0-0.1-0.4,0-0.4c0.1,0-0.1-0.8,0-0.8c0.2,0,0.4,2,0.4,2c0.4,0,0.5-0.6,1-0.6 c0.5,0,0.5,0,1.1,0c0.5,0,0.5-1.1,1.1-1.1c0.5,0,0.5-0.7,1.1-0.7c0.5,0,0.5,2.2,1.1,2.2c0.5,0,0.5-0.7,1.1-0.7c0.5,0,0.5-1,1.1-1 c0.5,0,0.5,0.8,1.1,0.9c0.5,0,0.5-0.4,1.1-0.4c0.5,0,0.5,1,1.1,1.1s0.6-1.9,1.1-1.9c0.5,0,0.5-0.1,1.1-0.1c0.5,0,0.5,2.1,1.1,2.1 c0.5,0,0.6-1.4,1.1-1.4s0.5-0.6,1.1-0.6c0.5,0,0.5,1.7,1.1,1.7c0.5,0,0.5-0.5,1.1-0.5c0.5,0,0.5-0.9,1.1-0.9s0.5,0.4,1.1,0.4 c0.5,0,0.5,1.1,1.1,1.1c0.5,0,0.5,0.2,1.1,0.2c0.5,0,0.5-0.7,1.1-0.7c0.5,0,0.5-0.5,1.1-0.5c0,0,0,0,0-0.1 c0.1,0.3,0.3,0.6,0.5,0.6c0.5,0,0.5,0.7,1.1,0.7c0.5,0,0.6-2.1,1.1-2.1c0.5,0,0.5,0.2,1.1,0.2c0.5,0,0.5,1.9,1.1,1.9 c0.5,0,0.5-0.7,1.1-0.7c0.5,0,0.6-1.3,1.1-1.3c0.5,0,0.5,0,1.1,0.1c0.5,0,0.5,0.6,1.1,0.6s0.5-0.2,1.1-0.2c0.5,0,0.5,0.5,1.1,0.5 c0.5,0,0.5,0.5,1.1,0.5c0.5,0,0.5-0.3,1.1-0.3c0.5,0,0.5-0.2,1.1-0.1c0.5,0,0.5,0.1,1.1,0.1c0.5,0,0.5,0.3,1.1,0.3 c0.5,0,0.6-1.3,1.1-1.3c0.5,0,0.5,0.5,1.1,0.5c0.5,0,0.5-0.1,1.1-0.1c0.5,0,0.5,1.3,1.1,1.3c0.5,0,0.5-0.6,1.1-0.6 c0.5,0,0.5,0.6,1.1,0.6c0.5,0,0.5-0.3,1.1-0.3c0.5,0,0.5,0,1.1,0c0.5,0,0.5-0.4,1.1-0.4c0.2,0,0.2-0.8,0.4-0.8c0.2,0-0.3,2-0.3,2 c0,0,0.3-0.6,0.4-0.6c0.1,0,0.1,0,0.1,0c0.1,0,0.9-1.1,1.1-1.1c0.2,0,0.8-0.7,1.1-0.7c0.3,0-2.3,2.2-2.3,2.2 c0.3-0.2,0.5-0.4,0.8-0.6c0.1-0.1,0.2-0.1,0.2-0.1c0,0.1,1.3-0.8,1.2-0.6c-0.1,0.2-1.1,0.8-1.2,0.9c0,0.1,0.4-0.1,0.4,0 c0,0.2-1.3,0.5-1.3,0.6c0,0,2.1-0.3,2.1-0.1c-0.1,0.2,0,0.2,0,0.4c-0.1,0.2-2.2,0-2.2,0s1.3,0.6,1.2,1.1c-0.2,0.5,0.4,0.7,0.2,1.2 c-0.2,0.5-1.8,0-2,0.5s0.3,0.7,0.2,1.2c-0.2,0.5,0.7,0.8,0.5,1.3c-0.2,0.5-0.5,0.4-0.7,0.9c-0.2,0.5-1.2,0.2-1.4,0.7 c-0.2,0.5-0.3,0.5-0.5,1c-0.2,0.5,0.6,0.7,0.4,1.3c-0.2,0.5,0.3,0.7,0.1,1.2c0,0.1,4.2,1.6,4.2,1.6c2.5,0.8,4.1,1.2,4.1,1 c0.2-0.5-0.2-0.6,0-1.1s0.3-0.5,0.4-1c0.2-0.5,0.4-0.4,0.6-0.9c0.2-0.5,1.2-0.2,1.3-0.7c0.2-0.5,0.3-0.5,0.5-1 c0.2-0.5-0.3-0.7-0.1-1.2c0.2-0.5,0.5-0.4,0.6-0.9c0.2-0.5-0.5-0.7-0.3-1.2c0.2-0.5-0.7-0.8-0.5-1.3c0.2-0.6,1.8,0.2,2.1-0.9 c0.3-1-1.6-1.3-1.4-2.1c0.3-0.8,0.6-0.8,0.9-1.7c0.3-0.8,2.5-1.2,2.9-2.3c0.3-1-0.8-0.7-0.5-1.6c0.3-0.9,0-0.8,0.3-1.7 c0.3-0.9,0.2-0.9,0.5-1.8c0.3-0.9,0.8-1.3,1.1-2.2c0.1-0.3,0.1-0.4,0.2-0.5C286.9,351.4,286.6,351.5,285.9,351.5z" fill="inherit"/><path d="M229.3 368.8L235 371.3 237.4 368.8 240.7 368.1 246.9 373.4 253.1 368.5 255.4 371.3 259.9 368.5 259.9 365.7 229 365.7z" fill="inherit"/></g><g id="change2_6"><path d="M112.3,207.3c-0.5-1.1-0.8-0.9-1.3-2c-0.5-1.1-0.4-1.1-0.9-2.2c-0.5-1.1-0.2-1.2-0.7-2.3 c-0.4-1.1,0.6-1.5,0.1-2.6c-0.4-1.1-0.3-1.2-0.7-2.3c-0.4-1.1-0.9-1-1.2-2.1c-0.4-1.1-0.1-1.2-0.5-2.4c-0.4-1.1-1-0.9-1.4-2.1 c-0.4-1.2-1.2-0.9-1.5-2.1c-0.3-1.2,1.4-1.7,1-2.8c-0.3-1.2-2.2-0.6-2.5-1.8c-0.3-1.2,0-1.3-0.3-2.4c-0.3-1.2,1.7-1.7,1.4-2.9 c-0.3-1.2-1.2-1-1.5-2.1c-0.3-1.2-0.5-1.1-0.8-2.3c-0.3-1.2-0.3-1.2-0.6-2.4c-0.3-1.2,0.1-1.3-0.1-2.5c-0.3-1.2-0.3-1.2-0.6-2.4 c-0.2-1.2-1.1-1-1.4-2.2c-0.2-1.2,0.7-1.4,0.5-2.6c-0.2-1.2,0-1.3-0.3-2.5c-0.2-1.2-0.8-1.1-1-2.3c-0.2-1.2,0-1.3-0.2-2.5 c-0.2-1.2,0-1.3-0.2-2.5c-0.2-1.2-1.5-1-1.7-2.2c-0.2-1.2,0.4-1.3,0.1-2.5c-0.2-1.2-0.8-1.1-1.1-2.3c-0.2-1.2-0.4-1.2-0.6-2.4 c-0.2-1.2,0.5-1.3,0.3-2.5c-0.2-1.2,0.4-1.3,0.2-2.5c-0.2-1.2-1.3-1-1.5-2.2c-0.2-1.2-0.4-1.2-0.6-2.4c-0.2-1.2,1.5-1.4,1.4-2.6 c-0.1-1.2-1.2-1.1-1.3-2.3c-0.1-1.2,1.3-1.4,1.2-2.6c-0.1-1.2-1.5-1.1-1.6-2.3c-0.1-1.2,0.9-1.3,0.9-2.5c-0.1-1.2,0.1-1.2,0-2.4 c-0.1-1.2-0.2-1.2-0.2-2.4c0-1.2-0.5-1.2-0.5-2.4c0-1.2,0.1-1.2,0.1-2.4c0-1.2-0.1-1.2-0.1-2.4c0.1-1.2-0.9-1.2-0.8-2.4 c0.1-1.2,1.1-1.1,1.2-2.3c0.1-1.2,0.7-1.1,0.8-2.3c0.1-1.2-0.7-1.2-0.5-2.4c0.2-1.2,0-1.2,0.1-2.3c0.2-1.1-0.5-1.3-0.3-2.4 c0.2-1.1,0.4-1.1,0.7-2.2c0.2-0.6,1.4-0.9,1.3-1.6c0-0.6-1.1-1.5-1-2c0.3-1.1,0.5-1.1,0.9-2.2c0.4-1.1,0.7-1,1-2.1 c0.4-1,1.4-0.6,1.8-1.5c0.4-0.9,0.6-0.8,1.1-1.6c0.5-0.8,0.1-1,0.7-1.7c0.5-0.6,0.8-0.4,1.3-0.9c0.5-0.4,0.1-1,0.7-1.3 c0.5-0.2,0.3-1,1-1.1c0.7-0.1,0.6,1.7,1.1,1.8c0.5,0.1,1.1-1.8,2-1.4c0.9,0.4,0.8,0.7,1.7,1.2c1,0.5,0,2.3,1,2.9 c1,0.6,1.5-0.2,2.6,0.4c1,0.6,1.2,0.4,2.2,1c1,0.6,1.1,0.6,2.1,1.2c1,0.7,0.8,1,1.8,1.6c1,0.7,1.1,0.6,2.1,1.3 c1,0.7,1.5-0.1,2.5,0.6c1,0.7,0.5,1.5,1.5,2.2c1,0.7,0.9,0.9,1.9,1.6c1,0.7,1.3,0.2,2.3,0.9c1,0.7,0.8,0.9,1.8,1.6 c1,0.7,0.8,0.9,1.8,1.6c1,0.7,1.7-0.3,2.7,0.5c1,0.7,0.6,1.2,1.6,2c1,0.7,1.4,0.2,2.3,1c1,0.8,1.1,0.6,2,1.4c1,0.8,0.5,1.3,1.5,2.1 c1,0.8,0.5,1.3,1.5,2c0.9,0.8,1.6-0.1,2.6,0.7c0.9,0.8,1.1,0.6,2,1.4c0.9,0.8-0.2,2.1,0.7,2.9c0.9,0.8,1.6,0,2.5,0.8 c0.9,0.8-0.1,1.9,0.8,2.7c0.9,0.8,1.9-0.2,2.8,0.6c0.9,0.8,0.2,1.6,1.1,2.4c0.9,0.8,0.8,0.9,1.7,1.8c0.9,0.8,1,0.7,1.9,1.6 c0.9,0.9,1.2,0.5,2,1.4c0.8,0.9,0.8,0.9,1.7,1.8c0.8,0.9,0.9,0.8,1.8,1.7c0.8,0.9,1.5,0.2,2.4,1.1c0.9,0.9,0.1,1.6,0.9,2.5 c0.8,0.9,0.4,1.3,1.3,2.2c0.8,0.9,1.4,0.4,2.2,1.3c0.8,0.9,1,0.8,1.8,1.7c0.8,0.9,1.4,0.4,2.2,1.3c0.8,0.9,0.6,1.1,1.4,2 c0.8,0.9,0.3,1.4,1.1,2.3c0.2,0.3,2.1-1.1,4.1-2.7c0,0,3.1-2.8,2.9-3.1c-0.8-1,0-1.7-0.8-2.6c-0.8-1-0.3-1.4-1.1-2.4 c-0.8-1-2.4,0.4-3.3-0.5c-0.8-0.9-0.7-1.1-1.5-2c-0.8-0.9,0.5-2.2-0.3-3.1c-0.9-0.9-1.4-0.5-2.2-1.4c-0.9-0.9-1.8-0.1-2.7-1 c-0.9-0.9-0.9-0.9-1.7-1.8c-0.9-0.9-0.5-1.3-1.4-2.2c-0.9-0.9-1-0.8-1.9-1.7c-0.9-0.9-0.5-1.3-1.4-2.2c-0.9-0.9-0.6-1.2-1.5-2.1 c-0.9-0.9-1.1-0.7-2-1.5c-0.9-0.9-1-0.8-2-1.6c-0.9-0.8-0.9-0.9-1.8-1.8c-0.9-0.9-0.8-1-1.7-1.9c-1-0.8-1.8,0.2-2.8-0.6 c-1-0.8-0.7-1.2-1.6-2c-1-0.8-1.1-0.7-2-1.5c-1-0.8-0.1-1.8-1.1-2.6c-1-0.8-1.4-0.3-2.4-1.1c-1-0.8-0.6-1.3-1.6-2.1 c-1-0.8-1.2-0.5-2.2-1.3c-1-0.8-1-0.8-2-1.5c-1-0.8-1.2-0.5-2.2-1.2c-1-0.8-1.5-0.1-2.5-0.8c-1-0.7,0.1-2.3-0.9-3.1 c-1-0.7-1.4-0.3-2.4-1c-1-0.7-1-0.7-2.1-1.5c-1-0.7-1.6,0.2-2.7-0.6c-1-0.7-1.4-0.1-2.5-0.8c-1-0.7,0.2-2.6-0.9-3.3 c-1.1-0.7-1.4-0.1-2.5-0.8c-1.1-0.7-1.6,0.2-2.7-0.5c-1.1-0.7-0.6-1.4-1.7-2.1c-1.1-0.7-1.3-0.3-2.4-1c-1.1-0.7-0.5-1.5-1.6-2.2 c-1.1-0.7-2.1,1-3.3,0.4c-1.3-0.6-1.3-0.6-2.7-1.1c-1.5-0.5-0.9-2.6-2.8-2.9c-2-0.2-2.1,1.2-4,1.3c-1.9,0.3-1.8,0.9-3.4,1.6 c-1.5,0.8-2.5-0.6-4,0.5c-1.4,1.2-1,1.6-2.1,2.8c-1,1.3-0.3,1.8-1.1,3c-0.8,1.3-1.1,1.1-1.8,2.4c-0.6,1.3-1.6,0.9-2.2,2.2 c-0.5,1.3-0.6,1.2-1.1,2.5c-0.4,1.3,0.3,1.5-0.1,2.8c-0.4,1.3,0.1,1.4-0.2,2.7c0,0,0,0.1,0,0.1c-0.4,0.3-0.7,0.5-0.9,1.2 c-0.3,1.3-0.9,1.1-1.2,2.5c-0.3,1.3,1.8,1.7,1.6,3c-0.2,1.3-0.4,1.2-0.6,2.5c-0.2,1.3-2.1,1-2.2,2.4c-0.1,1.3,0.5,1.4,0.4,2.7 c-0.1,1.3,1.2,1.4,1.1,2.7c-0.1,1.3-0.1,1.3-0.2,2.6c0,1.3-0.6,1.3-0.6,2.6c0,1.3,0.2,1.3,0.2,2.6c0,1.3-0.5,1.3-0.5,2.6 c0.1,1.3-0.4,1.3-0.4,2.6c0.1,1.3,0.3,1.3,0.4,2.6c0.1,1.3,0.2,1.3,0.4,2.5c0.1,1.3,0,1.3,0.1,2.6c0.1,1.3-0.1,1.3,0,2.6 c0.2,1.3,1.5,1.1,1.6,2.4c0.2,1.3-0.3,1.3-0.1,2.6c0.2,1.3,0.3,1.2,0.5,2.5c0.2,1.2-1.1,1.4-0.9,2.7c0.2,1.2,0.8,1.1,1,2.4 c0.2,1.2-0.4,1.3-0.2,2.6c0.2,1.2,0.5,1.2,0.8,2.4c0.2,1.2,0.2,1.2,0.5,2.5c0.2,1.2,0.6,1.2,0.8,2.4c0.2,1.2,1.1,1.1,1.3,2.3 c0.2,1.2-1.7,1.6-1.5,2.8c0.2,1.2,0.8,1.1,1.1,2.3c0.2,1.2,0.2,1.2,0.4,2.5c0.2,1.2,1.3,1,1.5,2.2c0.2,1.2,0.9,1.1,1.2,2.3 c0.2,1.2-1.9,1.7-1.7,2.9c0.3,1.2,1,1.1,1.2,2.3c0.3,1.2,1.2,1,1.5,2.2c0.3,1.2-0.5,1.4-0.3,2.6c0.3,1.2,0.7,1.1,1,2.4 c0.3,1.2-0.7,1.5-0.4,2.7c0.3,1.2,2.2,0.8,2.5,2c0.3,1.2,0.4,1.2,0.7,2.4c0.3,1.2-1.7,1.8-1.3,3c0.4,1.2,1.7,0.8,2.1,2.1 c0.4,1.2,0.9,1,1.3,2.3c0.4,1.2-1.3,1.7-0.9,3c0.4,1.2,0.9,1.1,1.3,2.3c0.4,1.2,1.3,0.9,1.7,2.1c0.4,1.2,0,1.3,0.5,2.5 c0.5,1.2-0.5,1.6-0.1,2.8c0.5,1.2,0.3,1.3,0.8,2.5c0.5,1.2,1.2,0.9,1.7,2.1c0.5,1.2,1,1,1.5,2.1c0.2,0.3,4.3-1.4,4.3-1.4 C111.1,208.5,112.5,207.6,112.3,207.3z" fill="#231815"/></g><g id="change2_7"><path d="M315.8,136.9c-0.7-0.4-0.9-0.1-1.5-0.5c-0.7-0.4-0.6-0.5-1.3-0.9c-0.7-0.4-0.5-0.7-1.2-1.1 c-0.7-0.4-0.2-1.3-0.9-1.7c-0.7-0.4-0.7-0.5-1.4-0.8c-0.7-0.4-0.9,0.1-1.6-0.3c-0.7-0.3-0.6-0.7-1.3-1c-0.7-0.3-1,0.3-1.7,0 c-0.7-0.3-1.1,0.5-1.8,0.2c-0.7-0.3-0.1-1.9-0.8-2.2c-0.7-0.3-1.4,1.6-2.1,1.3c-0.7-0.2-0.6-0.6-1.4-0.8c-0.7-0.2-0.1-2.2-0.8-2.4 c-0.7-0.3-1,0.7-1.8,0.4c-0.7-0.2-0.8,0-1.6-0.2c-0.7-0.2-0.8-0.1-1.5-0.3c-0.7-0.2-0.6-0.6-1.4-0.8c-0.7-0.2-0.8-0.2-1.5-0.3 c-0.8-0.2-1,0.7-1.7,0.5c-0.7-0.2-0.5-1.2-1.3-1.3c-0.8-0.2-0.7-0.4-1.5-0.6c-0.8-0.2-0.9,0.4-1.6,0.3c-0.8-0.1-0.7-0.4-1.5-0.5 c-0.8-0.1-0.7-0.4-1.5-0.5c-0.8-0.1-1,1.1-1.7,1c-0.7-0.1-0.7-0.7-1.4-0.8c-0.8-0.1-0.8,0.5-1.6,0.4c-0.8-0.1-0.8,0.1-1.5,0 c-0.7-0.1-0.7-0.8-1.4-0.9c-0.8-0.1-0.7-0.7-1.4-0.8c-0.8-0.1-0.9,1-1.6,0.9c-0.8-0.1-0.8,0.1-1.5,0.1c-0.8-0.1-0.6-1.8-1.3-1.9 c-0.8-0.1-0.9,0.9-1.6,0.9c-0.8-0.1-0.6-1.5-1.4-1.6c-0.8-0.1-0.9,1.4-1.6,1.3c-0.8-0.1-0.7-1.1-1.4-1.2c-0.8,0-0.7-0.2-1.5-0.2 c-0.8,0-0.8,0.1-1.5,0.1c-0.8,0-0.8,0.4-1.5,0.3c-0.8,0-0.8-0.1-1.5-0.1c-0.8,0-0.8,0.1-1.5,0c-0.8,0-0.8,0.9-1.5,0.9 c-0.8,0-0.7-1.1-1.5-1.1c-0.8,0-0.7-0.6-1.5-0.6c-0.8,0-0.8,0.8-1.5,0.8c-0.8,0-0.8,0.2-1.5,0.2c-0.8,0-0.8,0.7-1.5,0.7 c-0.7,0-0.7-0.2-1.5-0.2c-0.4,0-0.8-1.1-1.2-0.9c-0.4,0.2-0.7,1.5-1.1,1.5c-0.7,0-0.7-0.1-1.5-0.1c-0.7,0-0.7-0.3-1.5-0.3 c-0.7,0-0.8-1.1-1.5-1.1c-0.7,0-0.8-0.1-1.5-0.1c-0.7,0-0.7,0.5-1.5,0.5c-0.7,0-0.8-0.3-1.5-0.3c-0.7,0-0.7,0.7-1.5,0.7 c-0.7,0-0.7,0.9-1.5,0.9c-0.7,0-0.8-1.7-1.5-1.7c-0.7,0-0.7,2-1.4,2c-0.7,0-0.8-0.3-1.5-0.3c-0.7,0-0.8-2-1.6-2c-0.8,0-0.7,1-1.5,1 c-0.8,0-0.7,0.3-1.5,0.3c-0.8,0-0.7,0.1-1.5,0.1c-0.8,0-0.8-0.4-1.5-0.3c-0.8,0.1-0.8,0.1-1.5,0.1c-0.8,0-0.7,0.9-1.5,1 c-0.8,0.1-0.8-0.9-1.6-0.9c-0.8,0.1-0.8-0.2-1.5-0.1c-0.8,0.1-0.7,0.6-1.5,0.7c-0.8,0.1-0.8-0.2-1.5-0.1c-0.8,0.1-0.8-0.2-1.5-0.1 c-0.8,0.1-0.6,1.3-1.4,1.4c-0.8,0.1-0.8-0.5-1.6-0.4c-0.8,0.1-0.7,0.7-1.4,0.8c-0.8,0.1-0.7,0.3-1.5,0.5c-0.8,0.1-0.9-0.6-1.6-0.5 c-0.8,0.1-0.9-0.5-1.6-0.4c-0.8,0.2-0.6,1.2-1.3,1.4c-0.8,0.1-0.7,0.4-1.5,0.5c-0.7,0.2-1.1-1.5-1.9-1.3c-0.8,0.2-0.5,1.2-1.3,1.4 c-0.8,0.2-1.1-1.2-1.9-1c-0.8,0.2-0.4,1.6-1.1,1.8c-0.7,0.2-1.1-0.8-1.8-0.6c-0.8,0.2-0.8,0.1-1.6,0.4c-0.8,0.3-0.7,0.4-1.5,0.7 c-0.8,0.3-0.6,0.7-1.3,0.9c-0.7,0.3-0.8,0.2-1.5,0.5c-0.7,0.3-0.7,0.4-1.4,0.7c-0.7,0.3-0.3,1.2-1.1,1.5c-0.7,0.3-1.2-0.6-1.9-0.2 c-0.7,0.3-1-0.1-1.7,0.2c-0.7,0.4-0.3,1.1-1,1.5c-0.7,0.4-0.6,0.6-1.3,1c-0.7,0.4-0.3,1-1,1.5c-0.7,0.4-0.8,0.2-1.4,0.7 c-0.7,0.4-1.1-0.1-1.7,0.3c-0.2,0.1,1,2,2.5,4.2c0,0,2.5,3.4,2.7,3.3c0.6-0.4,1.2,0.5,1.7,0.2c0.6-0.4,0.9,0.2,1.5-0.2 c0.5-0.4-0.5-2.2,0.1-2.5c0.6-0.3,0.7-0.1,1.3-0.5c0.6-0.3,1.5,1.3,2.1,1c0.6-0.3,0.3-0.9,0.9-1.2c0.6-0.3,0.1-1.4,0.7-1.7 c0.6-0.3,0.6-0.3,1.3-0.5c0.6-0.3,0.9,0.2,1.5,0c0.6-0.3,0.6-0.4,1.2-0.7c0.6-0.3,0.8,0.3,1.5,0c0.7-0.2,0.8,0.2,1.4,0 c0.6-0.2,0.6-0.5,1.2-0.7c0.7-0.2,0.6-0.3,1.3-0.5c0.7-0.2,0.7-0.1,1.4-0.3c0.7-0.2,0.7,0.1,1.4-0.1c0.7-0.2,0.4-1.5,1-1.6 c0.7-0.2,0.8,0.3,1.5,0.1c0.7-0.1,0.7-0.3,1.4-0.4c0.7-0.1,0.9,1.1,1.6,1c0.7-0.1,0.6-0.8,1.3-0.9c0.7-0.1,0.8,0.5,1.5,0.4 c0.7-0.1,0.6-0.5,1.3-0.6c0.7-0.1,0.7-0.1,1.4-0.2c0.7-0.1,0.7-0.4,1.4-0.5c0.7-0.1,0.6-0.9,1.3-1c0.7-0.1,0.9,1.9,1.6,1.8 c0.7-0.1,0.6-0.7,1.4-0.8c0.7-0.1,0.7-0.1,1.4-0.1c0.7-0.1,0.6-1.1,1.4-1.2c0.7-0.1,0.7-0.7,1.4-0.8c0.7-0.1,0.9,2.2,1.6,2.1 c0.7,0,0.7-0.7,1.4-0.8c0.7,0,0.7-1,1.4-1.1c0.7,0,0.8,0.8,1.5,0.8c0.7,0,0.7-0.4,1.4-0.5c0.7,0,0.8,1,1.5,1c0.7,0,0.7-2,1.4-2 c0.7,0,0.7-0.1,1.5-0.1c0.7,0,0.8,2.1,1.5,2.1c0.7,0,0.7-1.4,1.4-1.5c0.7,0,0.7-0.6,1.5-0.6c0.7,0,0.8,1.7,1.5,1.7 c0.7,0,0.7-0.5,1.5-0.5c0.7,0,0.7-0.9,1.5-0.9c0.7,0,0.7,0.4,1.5,0.4c0.7,0,0.7,1.1,1.5,1.1c0.7,0,0.7,0.2,1.5,0.2 c0.7,0,0.7-0.8,1.5-0.8c0.7,0,0.7-0.5,1.5-0.5c0,0,0,0,0-0.1c0.2,0.3,0.4,0.6,0.7,0.6c0.7,0,0.7,0.7,1.5,0.7c0.7,0,0.8-2.1,1.5-2.1 c0.7,0,0.7,0.2,1.5,0.2c0.7,0,0.7,1.9,1.4,1.9c0.7,0,0.7-0.7,1.5-0.7c0.7,0,0.8-1.3,1.5-1.2c0.7,0,0.7,0,1.5,0.1 c0.7,0,0.7,0.6,1.4,0.6c0.7,0,0.7-0.1,1.5-0.1c0.7,0,0.7,0.6,1.4,0.6c0.7,0,0.7,0.5,1.4,0.6c0.7,0,0.7-0.2,1.5-0.2 c0.7,0,0.7-0.1,1.5-0.1c0.7,0.1,0.7,0.2,1.4,0.2c0.7,0.1,0.7,0.3,1.4,0.4c0.7,0.1,0.8-1.3,1.6-1.2c0.7,0.1,0.7,0.5,1.4,0.6 c0.7,0.1,0.7-0.1,1.5,0c0.7,0.1,0.6,1.4,1.3,1.5c0.7,0.1,0.8-0.6,1.5-0.5c0.7,0.1,0.6,0.7,1.3,0.8c0.7,0.1,0.8-0.2,1.5-0.1 c0.7,0.1,0.7,0.1,1.4,0.2c0.7,0.1,0.8-0.3,1.5-0.1c0.7,0.1,0.8-0.7,1.6-0.6c0.7,0.1,0.4,2.1,1.1,2.2c0.7,0.1,0.8-0.5,1.5-0.3 c0.7,0.1,0.7,0.1,1.4,0.3c0.7,0.2,0.9-0.9,1.6-0.7c0.7,0.2,0.8-0.5,1.5-0.3c0.7,0.2,0.2,2.3,0.9,2.5c0.7,0.2,0.9-0.5,1.5-0.3 c0.7,0.2,0.9-0.8,1.6-0.6c0.7,0.2,0.5,1,1.1,1.2c0.7,0.2,0.8-0.2,1.5,0c0.7,0.2,0.4,1.2,1,1.4c0.7,0.2,1.3-1.6,1.9-1.4 c0.7,0.2,0.7,0.1,1.4,0.4c0.7,0.2,0,2.2,0.6,2.4c0.6,0.3,1.2-1.1,1.8-0.8c0.6,0.3,0.9-0.3,1.5,0c0.7,0.3,0,1.8,0.6,2.1 c0.6,0.3,0.8-0.2,1.5,0.1c0.6,0.3,1-0.5,1.6-0.2c0.6,0.3,0.4,0.7,1.1,1c0.6,0.3,0.1,1.3,0.7,1.6c0.6,0.3,0.5,0.5,1.1,0.9 c0.6,0.3,1-0.3,1.5,0.1c0.6,0.3,0.8-0.1,1.4,0.3c0.2,0.1,2.8-3.6,2.8-3.6C315.2,138.4,316,137,315.8,136.9z" fill="#231815"/></g><g id="change2_8"><path d="M377.3,212.3c0.4-1.2,0-1.3,0.4-2.5c0.4-1.2,0.5-1.2,0.9-2.4c0.4-1.2,0.7-1.1,1-2.4c0.4-1.2,1.4-0.9,1.8-2.1 c0.4-1.2,0.5-1.2,0.9-2.4c0.4-1.2-0.1-1.4,0.3-2.6c0.4-1.2,0.7-1.1,1.1-2.3c0.4-1.2-0.3-1.4,0.1-2.6c0.4-1.2-0.4-1.5-0.1-2.7 c0.4-1.2,2.1-0.7,2.4-1.9c0.4-1.2-1.5-1.8-1.1-3c0.4-1.2,0.7-1.1,1.1-2.3c0.4-1.2,2.3-0.6,2.7-1.8c0.4-1.2-0.6-1.5-0.2-2.7 c0.4-1.2,0.1-1.3,0.5-2.5c0.3-1.2,0.3-1.2,0.7-2.5c0.4-1.2,0.7-1.1,1.1-2.4c0.3-1.2,0.3-1.2,0.7-2.5c0.4-1.2-0.5-1.5-0.2-2.7 c0.3-1.2,1.3-1,1.7-2.2c0.3-1.2,0.6-1.2,0.9-2.4c0.3-1.3-0.2-1.4,0.1-2.7c0.3-1.3,0.6-1.2,0.9-2.5c0.3-1.3,0.5-1.2,0.9-2.5 c0.3-1.3-0.9-1.6-0.6-2.8c0.3-1.3,0.9-1.1,1.1-2.4c0.3-1.3-0.3-1.4-0.1-2.7c0.3-1.3,0.1-1.3,0.3-2.6c0.2-1.3,0.9-1.2,1.2-2.4 c0.2-1.3,0.9-1.2,1.1-2.5c0.2-1.3-0.9-1.5-0.7-2.8c0.2-1.3,0-1.3,0.1-2.6c0.2-1.3,1.9-1.1,2-2.4c0.2-1.3-0.9-1.4-0.8-2.7 c0.1-1.3,1.5-1.2,1.7-2.5c0.1-1.3-1.3-1.4-1.3-2.7c0.1-1.3,1.1-1.3,1.2-2.6c0-1.3,0.1-1.3,0.2-2.7c0-1.3-0.1-1.3-0.1-2.7 c0-1.3-0.5-1.3-0.5-2.7c-0.1-1.3,0-1.3,0-2.7c-0.1-1.3-0.2-1.3-0.3-2.7c-0.1-1.3-1.1-1.2-1.2-2.6c-0.1-1.3,0.9-1.4,0.7-2.8 c-0.2-1.3,0.4-1.4,0.2-2.7c-0.2-1.3-1-1.2-1.2-2.5c-0.2-1.3-0.4-1.3-0.7-2.6c-0.3-1.3-1-1.1-1.3-2.4c-0.3-1.3-0.1-1.3-0.4-2.6 c-0.2-0.7,0.7-1.7,0.3-2.3c-0.4-0.6-1.8-0.8-2-1.4c-0.4-1.3-0.3-1.3-0.7-2.6c-0.4-1.3-0.1-1.4-0.6-2.6c-0.4-1.2,0.6-1.6,0.1-2.9 c-0.3-0.8-0.4-1.2-0.5-1.6c-0.2-0.6-0.4-1.1-1-2.2c-0.6-1-1.1-1.3-1.6-1.7c-0.5-0.3-1-0.6-1.9-1.2c-1-0.6-1.5-0.8-2-1 c-0.5-0.2-1.1-0.4-2.2-0.5c-2.2-0.1-2.7,0.8-4,1c-1.4,0.2-1.3,1.1-2.6,1.3c-1.4,0.3-1.8-1.4-3.2-1c-1.4,0.4-0.8,2.3-2.1,2.7 c-1.3,0.5-1.4,0.2-2.7,0.6c-1.3,0.5-2.1-1.4-3.3-0.8c-1.3,0.6-0.9,1.5-2.1,2.1c-1.2,0.6-1.1,0.8-2.3,1.5c-1.2,0.6-1.1,0.7-2.3,1.3 c-1.1,0.6-1.3,0.3-2.5,1c-1.1,0.7-1.1,0.7-2.2,1.4c-1.1,0.7-0.7,1.4-1.8,2.1c-1.1,0.7-1.6-0.1-2.8,0.6c-1.1,0.7-1.2,0.5-2.3,1.2 c-1.1,0.7-0.8,1.2-1.8,2c-1.1,0.7-1.2,0.5-2.3,1.3c-1.1,0.8-1.2,0.6-2.3,1.4c-1.1,0.8-0.3,1.8-1.4,2.6c-1,0.8-1.4,0.3-2.4,1.1 c-1,0.8-0.6,1.3-1.7,2.1c-1,0.8-0.9,1-1.9,1.8c-1,0.8-1.5,0.3-2.5,1.1c-1,0.9-1.4,0.4-2.4,1.3c-1,0.9-0.2,1.7-1.2,2.6 c-1,0.9-0.8,1.1-1.8,1.9c-0.9,0.9-2.1-0.4-3.1,0.6c-1,0.9-0.2,1.6-1.2,2.6c-0.9,0.9-1.9-0.1-2.9,0.9c-0.9,0.9,0.1,1.9-0.8,2.9 c-0.9,1-1.7,0.2-2.6,1.2c-0.9,1-1,0.9-1.9,1.9c-0.9,1-0.8,1.1-1.6,2.1c-0.9,1-0.5,1.3-1.4,2.3c-0.9,1-0.9,1-1.7,2 c-0.8,1-0.8,1.1-1.6,2.1c-0.8,1-0.1,1.6-0.8,2.7c-0.8,1-1.6,0.4-2.4,1.5c-0.8,1.1-1.2,0.7-2,1.8c-0.8,1.1-0.1,1.5-0.9,2.6 c-0.7,1.1-0.6,1.2-1.3,2.3c-0.7,1.1-0.1,1.5-0.8,2.6c-0.7,1.1-0.9,1-1.6,2.1c-0.7,1.1-1.3,0.7-2,1.9c-0.2,0.3,1.6,1.6,3.9,3 c0,0,3.7,2,3.9,1.7c0.7-1.1,1.6-0.5,2.2-1.5c0.7-1,1.2-0.7,1.9-1.7c0.7-1-1.1-2.2-0.4-3.2c0.7-1,0.9-0.9,1.6-1.9 c0.7-1,2.3,0.1,3-0.9c0.7-1,0.2-1.4,0.9-2.4c0.7-1-0.3-1.8,0.5-2.7c0.8-1,0.8-1,1.5-2c0.8-1,1.2-0.6,2-1.6c0.8-1,0.7-1.1,1.4-2 c0.8-1,1.2-0.6,2-1.5c0.8-0.9,1.2-0.6,2-1.6c0.8-0.9,0.6-1.1,1.5-2c0.8-0.9,0.7-1,1.6-1.9c0.8-0.9,0.9-0.8,1.8-1.7 c0.9-0.9,1.1-0.7,1.9-1.6c0.9-0.9-0.1-1.9,0.8-2.7c0.9-0.9,1.2-0.5,2.1-1.4c0.9-0.8,0.8-1,1.7-1.8c0.9-0.8,1.8,0.1,2.7-0.7 c0.9-0.8,0.5-1.3,1.4-2.1c1-0.8,1.4-0.3,2.3-1.1c0.9-0.8,0.7-1.1,1.7-1.8c1-0.8,1-0.8,1.9-1.6c1-0.8,0.8-1,1.7-1.8 c1-0.7,0.5-1.4,1.5-2.1c1-0.7,2.2,0.9,3.2,0.1c1-0.7,0.7-1.2,1.7-1.9c1-0.7,1-0.7,2.1-1.4c1-0.7,0.4-1.6,1.5-2.2 c1-0.7,0.7-1.2,1.7-1.9c1.1-0.7,2.2,1.2,3.3,0.6c1.1-0.6,0.7-1.2,1.8-1.9c1.1-0.6,0.6-1.5,1.6-2.1c1.1-0.6,1.5,0.1,2.5-0.4 c1.1-0.6,0.9-0.9,2-1.5c1.1-0.5,1.5,0.4,2.6-0.1c1.1-0.5,0.3-2.3,1.4-2.7c1.1-0.4,1.1-0.5,2.2-0.9c1.1-0.4,1.8,1.6,2.8,1.3 c1.1-0.3,0.7-1.7,1.8-1.9c1.1-0.2,1-0.8,2.1-1c1.3-0.2,1,1.6,1.1,1.6c0.1,0,0.3-0.5,0.5-0.4c0.2,0.1,0.8-0.6,1-0.2 c0.1,0.2,0,0.3,0,0.5c0,0.1-0.1,0.1-0.1,0.2c0,0.2,0.1,0.4,0.2,0.7c0.4,1.1-0.6,1.5-0.2,2.7c0.4,1.1,0.2,1.2,0.6,2.3 c0.4,1.1,1.1,0.9,1.4,2.1c0.3,1.2,0.8,1,1.1,2.2c0,0,0,0,0.1,0c-0.2,0.4-0.4,0.7-0.2,1.3c0.3,1.2-0.4,1.3-0.1,2.5 c0.3,1.2,2.3,0.7,2.6,1.9c0.2,1.2,0,1.2,0.3,2.5c0.2,1.2-1.6,1.5-1.4,2.7c0.2,1.2,0.9,1.1,1,2.3c0.1,1.2,1.4,1,1.6,2.3 c0.1,1.2,0.1,1.2,0.2,2.5c0.1,1.2-0.4,1.3-0.4,2.5c0.1,1.2,0.2,1.2,0.3,2.4c0,1.2-0.5,1.2-0.5,2.5c0,1.2-0.5,1.2-0.5,2.4 c0,1.2,0.3,1.2,0.2,2.4c-0.1,1.2,0.1,1.2,0,2.5c-0.1,1.2-0.2,1.2-0.2,2.4c-0.1,1.2-0.4,1.2-0.5,2.4c-0.1,1.2,1.3,1.4,1.1,2.6 c-0.1,1.2-0.6,1.2-0.7,2.4c-0.1,1.2,0,1.3-0.2,2.5c-0.2,1.2-1.5,1-1.7,2.3c-0.2,1.2,0.5,1.3,0.2,2.5c-0.2,1.2-0.8,1.1-1.1,2.3 c-0.2,1.2,0.1,1.3-0.1,2.5c-0.2,1.2-0.2,1.2-0.4,2.4c-0.3,1.2,0.1,1.3-0.2,2.5c-0.3,1.2,0.5,1.4,0.3,2.6c-0.3,1.2-2.2,0.8-2.5,2 c-0.3,1.2,0.3,1.4,0,2.6c-0.3,1.2-0.3,1.2-0.7,2.4c-0.3,1.2,0.7,1.5,0.4,2.7c-0.3,1.2,0.3,1.4,0,2.6c-0.3,1.2-2.5,0.6-2.8,1.8 c-0.4,1.2,0.3,1.4,0,2.6c-0.4,1.2,0.6,1.5,0.2,2.7c-0.4,1.2-1.2,1-1.5,2.2c-0.4,1.2,0,1.3-0.4,2.5c-0.4,1.2-1.4,0.9-1.7,2.1 c-0.4,1.2,1.5,1.8,1.1,3c-0.4,1.2-0.3,1.2-0.7,2.5c-0.4,1.2-2.4,0.6-2.8,1.8c-0.4,1.2,1,1.6,0.6,2.9c-0.4,1.2,0.2,1.4-0.2,2.6 c-0.4,1.2-2,0.7-2.4,1.9c-0.4,1.2,0.1,1.4-0.3,2.6c-0.4,1.2,0.5,1.5,0.1,2.7c-0.4,1.2-0.8,1.1-1.1,2.3c-0.4,1.2-1.4,0.9-1.8,2.1 c-0.4,1.2-0.6,1.2-0.9,2.4c-0.4,1.2,0.3,1.4,0,2.7c-0.4,1.2,0.1,1.4-0.3,2.6c-0.1,0.3,4.1,1.9,4.1,1.9 C375.7,212.4,377.2,212.6,377.3,212.3z" fill="#231815"/></g><g id="change2_9"><path d="M362.1,200.4c1.8,2.6,2.1,2.4,3.8,5.1c1.7,2.7,1.5,2.8,3.2,5.5c1.5,2.8,1.3,2.9,2.8,5.7 c1.5,2.8,0.5,3.3,1.9,6.2c1.4,2.8,1.2,2.9,2.6,5.8c1.3,2.9,1.7,2.7,3,5.7c1.3,2.9,1,3.1,2.2,6c1.2,3,1.8,2.7,3,5.7 c1.1,3,1.9,2.7,3,5.7c1.1,3-0.6,3.6,0.4,6.6c0.9,3,2.8,2.5,3.7,5.5c0.9,3.1,0.6,3.1,1.3,6.2c0.7,3.1-1.3,3.5-0.7,6.5 c0.5,3,1.5,2.9,1.9,6c0.3,3.1,0.6,3.1,0.8,6.1c0.2,3.1,0.3,3.1,0.3,6.2c0,3.1-0.5,3.1-0.6,6.1c-0.3,3-0.2,3-0.6,6.1 c-0.5,3,0.4,3.2-0.3,6.2c-0.8,3-1.7,2.7-2.7,5.5c-1,2.8-1.2,2.8-2.4,5.5c-1.3,2.7-0.7,3-2.2,5.7c-1.5,2.7-1.7,2.5-3.4,5.1 c-1.7,2.6-1.9,2.4-3.7,4.9c-1.9,2.5-0.9,3.2-2.9,5.7c-2,2.4-2.5,2-4.6,4.4c-2.2,2.3-1.7,2.7-3.9,5c-2.3,2.3-2.1,2.4-4.4,4.6 c-2.3,2.2-2.8,1.7-5.2,3.8c-2.4,2.2-2.8,1.7-5.2,3.8c-2.4,2.1-1.7,2.9-4.2,5c-2.5,2-2.4,2.2-4.9,4.1c-2.5,2-3.5,0.6-6.1,2.5 c-2.6,1.8-2,2.7-4.6,4.5c-2.6,1.8-3.5,0.6-6.1,2.3c-2.7,1.7-1.9,3-4.6,4.6c-2.8,1.6-3.3,0.7-6,2.3c-2.7,1.6-2.9,1.4-5.6,2.9 c-2.8,1.4-2.7,1.7-5.6,3c-2.9,1.3-2.7,1.7-5.6,3c-2.9,1.3-2.9,1.1-5.9,2.3c-3,1.1-2.9,1.3-5.9,2.3c-3,1-2.7,1.9-5.7,2.8 c-3,1-3.3-0.1-6.4,0.7c-3.1,0.8-3.2,0.3-6.2,1c-3.1,0.6-2.9,1.4-6,1.9c-3.1,0.6-3.1,0.7-6.2,1.1c-3.1,0.3-3,1.2-6.2,1.4 c-3.2,0.1-3.2-0.1-6.3,0.1c-1.7,0.1-3.4-1-5.1-0.9c-1.5,0.1-3,1.4-4.6,1.3c-3.2-0.1-3.1-0.4-6.3-0.7c-3.1-0.4-3.1-0.6-6.2-1.1 c-3.1-0.5-2.9-1.6-6-2.2c-3.1-0.7-3-0.8-6.1-1.6c-3-0.8-3.2-0.4-6.2-1.3c-3-0.9-2.9-1.2-5.9-2.2c-3-1-3.2-0.4-6.2-1.5 c-3-1.1-3.3-0.3-6.3-1.5c-3-1.2-2.3-2.8-5.2-4.1c-2.9-1.3-3.7,0.5-6.6-0.8c-2.9-1.4-2.8-1.7-5.6-3.1c-2.9-1.4-1.9-3.2-4.7-4.7 c-2.8-1.5-3.3-0.7-6.1-2.2c-2.8-1.6-2.9-1.4-5.6-3c-2.7-1.7-2.8-1.6-5.5-3.3c-2.7-1.8-2.5-2.1-5.1-3.9c-2.6-1.8-2.6-1.8-5.2-3.6 c-2.6-1.9-3.1-1.2-5.6-3.1c-2.5-2-1.9-2.8-4.3-4.8c-2.4-2-2.3-2.2-4.7-4.3c-2.4-2.1-2.7-1.7-5.1-3.8c-2.3-2.2-2.1-2.4-4.2-4.6 c-2.1-2.3-2-2.4-4-4.8c-2-2.4-2.9-1.6-4.8-4.1c-1.8-2.5-1.3-2.9-2.9-5.5c-1.5-2.7-2.1-2.3-3.5-5.1c-1.3-2.8-1.6-2.7-2.7-5.6 c-1.2-2.9-0.4-3.2-1.4-6.1c-0.8-3-0.3-3.1-1-6.1c-0.7-3-1.7-2.8-2.3-5.9c-0.4-3.1-0.7-3.1-1-6.2c-0.3-3.1,1.5-3.3,1.3-6.3 c-0.1-3.1-1.1-3.1-1.1-6.2c0.1-3.1,1.5-3.1,1.7-6.2c0.2-3.1-1.1-3.2-0.8-6.4c0.5-3.1,1.4-3,2-6c0.5-3.1,0.7-3.1,1.3-6.3 c0.6-3.2,0.5-3.2,1.1-6.4c0.7-3.2,0.2-3.2,0.9-6.4c0.7-3.1,0.8-3.1,1.5-6.2c0.8-3.1,0.7-3.1,1.6-6.2c0.9-3,0-3.3,1-6.3 c1-3,2-2.7,3.1-5.6c1.2-2.9,1.6-2.8,2.9-5.6c1.3-2.9,0.5-3.2,1.9-6.1c1.3-2.9,1.2-2.9,2.6-5.7c1.4-2.8,0.9-3.1,2.4-5.9 c1.6-2.8,1.8-2.6,3.5-5.3c1.7-2.7,2.3-2.3,4.1-4.9c0.5-0.7-1.1-2.4-3.3-3.9c0,0-3.7-2-4.2-1.2c-1.8,2.8-2.8,2.1-4.6,5 c-1.8,2.9-2.4,2.5-4.1,5.4c-1.7,3,0.1,3.9-1.4,6.9c-1.5,3-1.8,2.8-3.2,5.9c-1.5,3-3.1,2.3-4.5,5.4c-1.3,3.1-0.6,3.4-1.9,6.5 c-1.1,3.2,0,3.6-1,6.8c-1,3.2-1.1,3.2-2,6.4c-0.9,3.2-1.4,3.1-2.3,6.3c-0.8,3.2-0.6,3.3-1.4,6.5c-0.7,3.2-1.2,3.1-1.9,6.3 c-0.7,3.2-1.1,3.1-1.8,6.3c-0.6,3.2-0.4,3.2-1,6.6c-0.6,3.3-0.4,3.4-0.9,6.7c-0.3,3.4-0.5,3.3-0.8,6.7c-0.3,3.4-0.5,3.4-0.6,6.8 c0,3.4,1.3,3.4,1.4,6.8c0.2,3.4-0.3,3.4,0,6.8c0.3,3.4,0.5,3.4,1,6.7c0.6,3.3-0.8,3.6,0.1,7c0.8,3.4,1.5,3.2,2.4,6.5 c1.1,3.3,0.4,3.5,1.7,6.7c1.3,3.2,1.7,3.1,3.2,6.2c1.6,3.1,1.7,3.1,3.4,6.1c1.8,3,2.2,2.7,4.2,5.6c2.1,2.8,2.7,2.2,4.9,4.9 c2.2,2.6,0.7,3.9,3.1,6.4c2.4,2.5,2.8,2,5.2,4.4c2.5,2.3,2.4,2.3,4.9,4.6c2.5,2.2,3.2,1.4,5.8,3.5c2.6,2.1,3,1.6,5.6,3.6 c2.6,2,1.3,3.8,4,5.8c2.7,2,3.1,1.4,5.9,3.3c2.7,1.9,3.3,1,6.1,2.9c2.8,1.8,2.4,2.5,5.2,4.2c2.9,1.7,3.1,1.4,5.9,3 c2.9,1.6,2.4,2.6,5.3,4.1c2.9,1.6,3.8-0.2,6.8,1.3c3,1.5,3,1.4,6,2.8c3,1.3,2.1,3.3,5.2,4.6c3.1,1.3,3.6,0,6.7,1.2 c3.1,1.2,3.3,0.7,6.4,1.8c3.1,1.2,2.5,2.8,5.7,3.9c3.2,1.1,3.3,0.6,6.5,1.6c3.2,1,3.5,0.1,6.7,1c3.2,0.8,3.1,1.2,6.4,2 c3.3,0.7,3.1,1.8,6.4,2.3c3.4,0.5,3.4,0.6,6.7,1c3.4,0.3,3.5-0.2,6.8-0.1c3.4,0.1,3.4-0.4,6.8-0.3c0.1,0,0.1,0,0.2-0.1 c0.9,0.3,1.7,0.6,3.4,0.5c3.4-0.2,3.4,0.5,6.8,0.4c3.4-0.2,3.2-2.4,6.5-2.8c3.3-0.4,3.4,0,6.7-0.7c3.3-0.6,3.6,1.2,7,0.6 c3.3-0.7,3.1-1.5,6.4-2.3c3.2-0.9,2.9-2,6.1-3c3.2-1,3.2-1,6.4-2c3.2-1.1,3.3-0.7,6.4-1.8c3.1-1.3,3.1-1.3,6.1-2.7 c3-1.4,3.3-0.9,6.3-2.3c3-1.4,3.2-1.1,6.2-2.6c3-1.6,2.9-1.7,5.8-3.4c2.9-1.7,2.8-1.8,5.7-3.5c2.9-1.7,2.9-1.7,5.7-3.4 c2.8-1.8,3-1.6,5.7-3.5c2.7-1.9,1.9-3,4.6-5c2.7-1.9,2.9-1.6,5.6-3.6c2.6-2,2.5-2.1,5.1-4.2c2.5-2.1,3.4-1.1,5.9-3.3 c2.6-2.1,2.1-2.7,4.5-4.9c2.4-2.3,2.9-1.8,5.3-4.1c2.4-2.3,2.1-2.6,4.5-4.9c2.3-2.4,2.3-2.4,4.6-4.9c2.3-2.5,2-2.7,4.2-5.3 c2.2-2.6,1.5-3.1,3.5-5.8c2-2.7,3.6-1.6,5.5-4.5c1.9-2.9,1.3-3.2,3-6.2c1.6-3,1.7-3,3.1-6.2c1.4-3.2,0.4-3.6,1.6-6.8 c1.1-3.3,0.4-3.5,1.3-6.8c0.8-3.3,2.9-2.9,3.6-6.3c0.5-3.5-0.2-3.5,0.1-7c0.2-3.4-0.7-3.5-0.7-6.9c0-3.4,0.8-3.4,0.6-6.8 c-0.2-3.4-0.7-3.4-1-6.7c-0.5-3.4,0.6-3.5,0-6.9c-0.7-3.4-2.5-3-3.3-6.2c-0.8-3.3-0.9-3.2-1.8-6.4c-0.9-3.2,1.1-3.8,0.1-7 c-1-3.2-2.4-2.7-3.5-5.8c-1.1-3.1-1.7-2.9-2.8-6c-1.2-3.1,0.4-3.7-0.8-6.8c-1.2-3.1-1.7-2.9-3-5.9c-1.3-3.1-2.1-2.7-3.5-5.7 c-1.4-3-1-3.2-2.5-6.2c-1.5-3-0.5-3.5-2-6.4c-1.5-3-1.4-3-3.1-6c-1.7-2.9-2.3-2.5-4.1-5.4c-1.8-2.8-2.2-2.6-4.1-5.4 c-0.5-0.8-4.6,1.3-4.6,1.3C362.6,198.3,361.6,199.7,362.1,200.4z" fill="#231815"/></g><g id="change5_2"><path d="M315.2,144c0,0,30-35.2,55.3-41.2c0,0,15.7,45.9-7.5,90.2C362.9,193,347.2,166,315.2,144z" fill="#f08419"/></g><g id="change5_3"><path d="M167.4,144c0,0-30-35.2-55.3-41.2c0,0-15.7,45.9,7.5,90.2C119.6,193,135.3,166,167.4,144z" fill="#f08419"/></g></g></svg>