<?xml version="1.0" encoding="UTF-8" standalone="no"?><svg xmlns="http://www.w3.org/2000/svg" xmlns:xlink="http://www.w3.org/1999/xlink" fill="#2fb1f9" height="1000.1" viewBox="0 0 1000.2 1000.1" width="1000.2"><g><g><defs><path d="M500,0c276.1,0,500,223.9,500,500s-223.9,500-500,500S0,776.1,0,500S223.9,0,500,0L500,0z" id="a"/></defs><use clip-rule="evenodd" fill-rule="evenodd" overflow="visible" xlink:href="#a"/></g></g><g fill="#ffffff"><path d="M384.7,205.9c-8.2-1.3-8.6-1.4-4.7-2c7.4-1.1,25,0.4,37.1,3.3c28.2,6.7,53.9,23.7,81.3,54.1l7.3,8.1l10.4-1.7 c43.9-7,88.5-1.4,125.9,15.7c10.3,4.7,26.5,14.1,28.5,16.5c0.6,0.8,1.8,5.7,2.6,11c2.8,18.3,1.4,32.3-4.2,42.7 c-3.1,5.7-3.2,7.5-1.2,12.4c1.6,3.9,6.2,6.8,10.8,6.8c9.3,0,19.3-14.9,23.9-35.7l1.8-8.2l3.6,4.1c20,22.5,35.7,53.2,38.4,75 l0.7,5.7l-3.4-5.2c-5.8-8.9-11.6-15-19-19.9c-13.4-8.8-27.6-11.8-65.1-13.8c-33.9-1.8-53.1-4.7-72.1-10.8 c-32.4-10.5-48.7-24.5-87.1-74.6c-17.1-22.3-27.6-34.6-38.1-44.5C438.2,222.4,414.7,210.5,384.7,205.9z"/><path d="M678.1,255.6c0.9-14.9,2.9-24.8,7-33.8c1.6-3.6,3.1-6.5,3.4-6.5c0.2,0-0.5,2.6-1.6,5.8 c-3,8.7-3.5,20.7-1.4,34.5c2.6,17.6,4.1,20.2,22.8,39.2c8.8,8.9,19,20.2,22.7,25l6.7,8.8l-6.7-6.3c-8.2-7.7-27.2-22.7-31.4-24.8 c-2.8-1.4-3.2-1.4-5,0.3c-1.6,1.6-1.9,3.9-2.2,15.2c-0.3,17.5-2.7,28.7-8.5,39.9c-3.1,6.1-3.6,4.8-0.8-2.1 c2.1-5.1,2.3-7.4,2.3-24.3c0-34-4.1-42.1-27.9-56.1c-6-3.5-16-8.7-22.1-11.4c-6.1-2.7-11-5.1-10.8-5.2c0.7-0.7,23.9,6.1,33.2,9.6 c13.9,5.3,16.2,6,17.9,5.4C677,268.5,677.6,265.3,678.1,255.6z"/><path d="M400.7,313.8c-16.7-22.9-27.1-58-24.8-84.2l0.7-8.1l3.8,0.7c7.1,1.3,19.5,5.9,25.2,9.3 c15.8,9.6,22.7,22.1,29.7,54.5c2,9.5,4.7,20.2,6,23.8c2,5.8,9.5,19.5,15.6,28.3c4.4,6.4,1.5,9.4-8.2,8.5 C433.8,345.3,413.7,331.5,400.7,313.8z"/><path d="M657.8,484.1c-78.2-31.3-105.7-58.4-105.7-104.2c0-6.7,0.2-12.3,0.5-12.3c0.3,0,3.3,2.2,6.7,4.9 c15.8,12.6,33.6,18,82.7,25.2c28.9,4.2,45.2,7.6,60.2,12.5c47.7,15.7,77.2,47.6,84.3,91.1c2,12.6,0.8,36.3-2.5,48.8 c-2.6,9.9-10.6,27.6-12.7,28.3c-0.6,0.2-1.2-2.1-1.3-5.1c-0.8-16.3-9.1-32.2-23-44.1C731.2,515.7,709.9,504.9,657.8,484.1z"/><path d="M603,497.1c-1-5.8-2.7-13.2-3.8-16.4l-2-5.9l3.7,4.1c5.1,5.7,9.2,13,12.6,22.8c2.6,7.4,2.9,9.7,2.9,21.7 c0,11.9-0.3,14.4-2.8,21.1c-3.8,10.6-8.5,18-16.5,26.1c-14.3,14.4-32.6,22.4-59.1,25.8c-4.6,0.6-18,1.5-29.8,2.2 c-29.7,1.5-49.3,4.7-66.9,10.9c-2.5,0.9-4.8,1.4-5,1.2c-0.7-0.7,11.3-7.8,21.1-12.5c13.9-6.7,27.8-10.3,58.9-15.5 c15.4-2.5,31.2-5.6,35.3-6.9C589.7,564,609.2,534.1,603,497.1z"/><path d="M638.8,560.3c-10.4-22.2-12.8-43.6-7.1-63.6c0.6-2.1,1.6-3.9,2.2-3.9c0.6,0,3,1.3,5.4,2.9 c4.8,3.2,14.4,8.6,40,22.4c31.9,17.3,50.1,30.7,62.5,46c10.8,13.4,17.5,28.7,20.8,47.3c1.8,10.5,0.8,35.9-2,46.5 c-8.6,33.5-28.5,59.7-57,75.1c-4.2,2.2-7.9,4.1-8.3,4.1c-0.4,0,1.1-3.8,3.4-8.5c9.6-19.9,10.7-39.2,3.4-60.7 c-4.4-13.2-13.5-29.3-31.7-56.4C649.2,579.9,644,571.4,638.8,560.3z"/><path d="M345.2,680c29-24.3,65.1-41.6,98-46.9c14.2-2.3,37.8-1.4,50.9,2c21,5.3,39.8,17.3,49.6,31.6 c9.6,13.9,13.7,26.1,17.9,53.2c1.7,10.7,3.5,21.4,4.1,23.8c3.2,14,9.4,25.2,17.2,30.8c12.3,8.9,33.4,9.5,54.2,1.4 c3.5-1.4,6.6-2.3,6.8-2.1c0.8,0.7-9.7,7.7-17.1,11.4c-9.9,4.9-17.9,6.8-28.4,6.8c-19.1,0-34.9-9.6-48.1-29.3 c-2.6-3.9-8.4-15.4-13-25.7c-13.9-31.6-20.8-41.2-37-51.8c-14.1-9.2-32.2-10.8-45.9-4.1c-17.9,8.7-23,31.5-10.1,46 c5.1,5.7,14.6,10.7,22.4,11.7c14.6,1.8,27.1-9.2,27.1-23.8c0-9.5-3.7-14.9-12.9-19.1c-12.6-5.7-26.2,1-26.1,12.7 c0,5,2.2,8.2,7.3,10.5c3.3,1.5,3.3,1.6,0.7,1c-11.6-2.4-14.3-16.3-5-25.5c11.2-11.1,34.3-6.2,42.3,8.9c3.3,6.3,3.7,19,0.8,26.6 c-6.5,17.1-25.5,26.1-44.8,21.2c-13.1-3.3-18.5-6.9-34.3-23.1c-27.5-28.1-38.1-33.6-77.7-39.7l-7.6-1.2L345.2,680z"/><path d="M216.3,176.7c91.7,110.7,154.9,156.3,161.9,166c5.8,8,3.6,15.1-6.3,20.7c-5.5,3.1-16.9,6.3-22.6,6.3 c-6.4,0-8.6-2.5-8.6-2.5c-3.7-3.5-5.8-2.9-25-36.7c-26.6-41-48.8-75-49.4-75.6c-1.4-1.3-1.4-1.3,46.7,84.3 c7.8,17.8,1.5,24.4,1.5,26.9c0,5.2-1.4,7.9-7.8,15c-10.7,11.9-15.5,25.2-18.9,52.7c-3.9,30.9-14.7,52.7-44.9,90.1 c-17.6,21.9-20.5,25.9-25,34.7c-5.6,11.1-7.1,17.3-7.8,31.3c-0.7,14.8,0.6,24.4,5.2,38.6c4,12.4,8.1,20.6,18.8,37 c9.2,14.1,14.5,24.6,14.5,28.7c0,3.3,0.6,3.3,14.9,0.1c34-7.6,61.7-21.1,77.2-37.6c9.6-10.2,11.9-15.8,12-29.8 c0-9.1-0.3-11.1-2.8-16.3c-4-8.6-11.4-15.7-27.6-26.7c-21.3-14.5-30.4-26.1-32.9-42.1c-2.1-13.1,0.3-22.4,12.1-46.9 c12.2-25.4,15.2-36.2,17.2-61.7c1.3-16.5,3.1-23,7.9-28.3c5-5.5,9.5-7.3,21.8-9c20.1-2.7,32.9-7.9,43.4-17.5 c9.1-8.4,12.9-16.4,13.5-28.5l0.4-9.2l-5.1-5.9c-18.5-21.4-196.8-174.9-198-174.9C202.6,159.9,208.7,167.4,216.3,176.7z M259.1,606.7c4.2-7.4,2-16.8-5-21.4c-6.6-4.4-16.8-2.3-16.8,3.4c0,1.7,1,3,3.1,4.1c3.7,1.9,3.9,4,1,8.3c-2.9,4.4-2.7,8.2,0.7,10.8 C247.4,616,255.1,613.7,259.1,606.7z"/><path d="M418.6,400.7c-9.4,2.9-18.6,12.8-21.4,23.2c-1.7,6.4-0.7,17.5,1.8,21c4.2,5.6,8.2,7,19.2,7 c21.5-0.1,40.2-9.3,42.3-20.8c1.8-9.4-6.4-22.4-17.7-28.1C437,400.1,424.6,398.9,418.6,400.7z M443.7,420.3 c3.3-4.7,1.9-9.7-3.8-13.2c-10.7-6.5-27-1.1-27,9c0,5,8.5,10.5,16.2,10.5C434.3,426.5,441.4,423.5,443.7,420.3z"/></g></svg>